<?xml version="1.0" encoding="utf-8"?>
<!-- Generator: Adobe Illustrator 16.0.0, SVG Export Plug-In . SVG Version: 6.00 Build 0)  -->
<!DOCTYPE svg PUBLIC "-//W3C//DTD SVG 1.1//EN" "http://www.w3.org/Graphics/SVG/1.1/DTD/svg11.dtd">
<svg version="1.1" id="Layer_1" xmlns="http://www.w3.org/2000/svg" xmlns:xlink="http://www.w3.org/1999/xlink" x="0px" y="0px"
	 width="256px" height="256px" viewBox="0 0 256 256" enable-background="new 0 0 256 256" xml:space="preserve">
<g id="Feet_1_">
	<path fill="#4C423D" d="M159.517,229.514c0-9.576,4.068-16.514,11.303-16.514h6.549c7.235,0,14.148,6.938,14.148,16.511v12.14
		c0,9.578-6.913,12.35-14.148,12.35h-6.549c-7.236,0-11.303-2.773-11.303-12.35V229.514z"/>
	<path fill="#4C423D" d="M81.517,241.65v-12.14c0-9.575,4.995-16.513,12.229-16.513h6.549c7.238,0,13.225,6.939,13.225,16.513v12.14
		c0,9.578-5.988,12.35-13.225,12.35h-6.549C86.51,254,81.517,251.227,81.517,241.65L81.517,241.65z"/>
</g>
<g id="Arm_Back_1_">
	<g id="Short_Sleeve_1_">
		<path fill="#CCB69D" d="M204.93,223.771c5.854,3.375,7.022,10.285,1.702,14.655c-6.665,5.472-16.698,2.156-17.615-7.177
			C188.465,225.627,197.993,220.271,204.93,223.771z"/>
		<path fill="#CCB69D" d="M168.562,197.104c1.049,6.223,11.65,26.228,20.455,34.146c3.417,0.417,13.167-5.083,15.914-7.479
			c-3.602-4.959-13.866-28.896-18.857-31.156C178.348,189.111,167.605,191.436,168.562,197.104z"/>
		<path fill="#4C6666" d="M168.562,197.104c1.049,6.223,2.83,12.896,9.455,21.396c3.417,0.417,22-6.249,22.5-7.916
			s-9.452-15.708-14.443-17.969C178.348,189.111,167.605,191.436,168.562,197.104z"/>
	</g>
</g>
<g id="Gloves_Back">
	<g id="Gauntlet_2_">
		<path fill="#A7A9AC" d="M198.932,229.5c3.958-2.458,5.646-4.063,6.146-5.375c-1.652-2.566-2.181-4.199-3.479-6.042
			c-3.125-4.437-26.355-4.083-24.917-0.333c1.448,3.777,8.515,12.611,12.846,15.584c0.613,0.385,3.927-0.928,5.552-1.709"/>
		<path fill="#808285" d="M191.632,233.121c-0.602,0.193-1.186,0.416-1.872,0.424c-0.091-0.008-0.183-0.013-0.288-0.068
			c-0.105-0.062-0.141-0.095-0.213-0.143l-0.385-0.27c-0.26-0.17-0.508-0.369-0.756-0.565c-1.998-1.56-3.709-3.408-5.396-5.269
			c-1.662-1.888-3.238-3.853-4.621-5.971c-0.7-1.076-1.348-2.093-1.872-3.398c-0.037-0.086-0.116-0.444-0.058-0.672
			c0.047-0.237,0.156-0.461,0.289-0.621c0.265-0.334,0.574-0.53,0.879-0.699c0.611-0.328,1.236-0.525,1.861-0.689
			c2.504-0.639,5.035-0.777,7.558-0.81c2.522-0.019,5.045,0.127,7.548,0.489c1.251,0.186,2.498,0.427,3.725,0.789
			c1.211,0.391,2.457,0.828,3.473,1.774c0.255,0.241,0.457,0.562,0.611,0.81c0.17,0.257,0.332,0.535,0.49,0.815
			c0.316,0.56,0.594,1.119,0.876,1.681c0.556,1.119,1.132,2.213,1.767,3.283l0.056,0.094l-0.037,0.088
			c-0.287,0.683-0.757,1.23-1.252,1.722c-0.501,0.489-1.043,0.927-1.599,1.34c-1.111,0.829-2.295,1.545-3.483,2.242
			c1.146-0.767,2.278-1.558,3.347-2.417c0.532-0.434,1.047-0.889,1.512-1.385c0.459-0.493,0.875-1.041,1.099-1.646l0.019,0.181
			c-0.718-1.032-1.349-2.129-1.943-3.23c-0.301-0.546-0.6-1.093-0.92-1.609c-0.314-0.494-0.676-1.093-1.041-1.442
			c-0.846-0.751-2.043-1.164-3.205-1.491c-1.178-0.327-2.391-0.557-3.615-0.723c-2.45-0.33-4.936-0.446-7.412-0.405
			c-1.238,0.022-2.475,0.09-3.703,0.212c-1.226,0.123-2.451,0.279-3.624,0.576c-0.583,0.146-1.159,0.33-1.653,0.589
			c-0.242,0.127-0.463,0.284-0.588,0.442c-0.069,0.078-0.094,0.149-0.11,0.213c-0.009,0.084-0.025,0.041,0.032,0.252
			c0.406,1.021,1.063,2.152,1.722,3.17c1.344,2.074,2.851,4.059,4.414,5.992c1.588,1.91,3.265,3.767,5.112,5.412
			c0.23,0.205,0.459,0.414,0.711,0.602l0.369,0.289c0.146,0.115,0.188,0.165,0.332,0.173c0.57,0.024,1.196-0.163,1.785-0.328
			c1.189-0.364,2.363-0.797,3.51-1.298C193.965,232.191,192.821,232.71,191.632,233.121z"/>
	</g>
	<path id="Glove_2_" fill="#736658" d="M186.755,231.657c0.574,0.452,1.617,1.095,2.168,1.5c2,9.042,10,11.626,17.781,5.093
		c5.268-4.421,4.377-11.268-1.459-14.646c-0.108-0.547-0.677-1.946-1.197-3.135C202.589,220.615,187.579,230.094,186.755,231.657z"
		/>
</g>
<g id="Torso">
	<g id="Armor">
		<path fill="#4C6666" d="M192.329,240.333c-4.906,1.122-94.396,2.612-112.811,0.608c-0.064-2.629-0.82-11.131-0.419-12.774
			c19.675,1.89,96.411-1.321,112.792-2.417C192.282,227.352,192.392,237.156,192.329,240.333z"/>
		<path fill="#A7A9AC" d="M79.042,195.377c2.121-4.857,113.125-6.107,113.975-0.002c0.667,4.792,0.75,42.25-0.688,44.958
			c-7.813-3.666-28.813-0.583-41.938-6.958c-9.625,5.25-46,3.125-70.873,7.566C78.099,240.125,77.517,198.875,79.042,195.377z"/>
		<g>
			<path fill="#808285" d="M101.97,219.168c0.679,0.855,1.443,1.672,2.326,2.173c0.438,0.244,0.897,0.399,1.322,0.374
				c0.443-0.031,1.074-0.14,1.603-0.203l3.313-0.447l6.646-0.791l6.649-0.686l13.279-1.263c2.213-0.191,4.416-0.435,6.62-0.667
				l6.603-0.751l0.254-0.029l0.218,0.045c3.582,0.726,7.198,1.308,10.813,1.898c1.81,0.282,3.623,0.548,5.44,0.788
				s3.633,0.496,5.454,0.707c3.64,0.402,7.292,0.818,10.934,0.957c0.908,0.039,1.818,0.063,2.713,0.035
				c0.448-0.012,0.889-0.045,1.314-0.104c0.202-0.037,0.434-0.068,0.523-0.113c0.125-0.054,0.283-0.176,0.426-0.311
				c0.586-0.574,1.046-1.389,1.433-2.2c0.39-0.817,0.729-1.677,0.915-2.583c-0.021,0.927-0.201,1.855-0.456,2.758
				c-0.282,0.899-0.599,1.791-1.215,2.624c-0.163,0.207-0.343,0.408-0.62,0.583c-0.313,0.188-0.55,0.214-0.791,0.291
				c-0.48,0.115-0.955,0.199-1.425,0.26c-0.942,0.125-1.876,0.193-2.81,0.248c-3.731,0.15-7.442,0.049-11.145-0.182
				c-1.85-0.118-3.7-0.242-5.545-0.423c-1.846-0.181-3.688-0.384-5.528-0.61c-3.684-0.433-7.346-1.039-11-1.723l0.472,0.016
				c-2.222,0.271-4.441,0.574-6.67,0.77c-2.225,0.211-4.451,0.429-6.677,0.598c-2.225,0.2-4.452,0.311-6.678,0.452
				c-2.229,0.132-4.448,0.272-6.677,0.368l-13.34,0.586l-3.342,0.13c-0.582,0.013-1.057,0.06-1.728,0.043
				c-0.694-0.041-1.304-0.334-1.789-0.695c-0.979-0.735-1.646-1.685-2.241-2.646c-0.574-0.975-1.045-1.996-1.466-3.028
				C100.667,217.379,101.28,218.309,101.97,219.168z"/>
		</g>
		<g>
			<path fill="#808285" d="M191.021,240.089l-1.316-0.159c-0.875-0.089-1.758-0.16-2.641-0.215
				c-1.768-0.102-3.538-0.163-5.313-0.232l-2.664-0.098c-0.891-0.011-1.776-0.105-2.657-0.223c-1.767-0.211-3.538-0.395-5.306-0.627
				c-1.77-0.225-3.537-0.471-5.299-0.756c-1.766-0.27-3.521-0.602-5.279-0.926c-1.748-0.369-3.502-0.717-5.237-1.154
				c-1.745-0.393-3.463-0.899-5.192-1.363l0.535,0.007c-1.465,0.339-2.921,0.729-4.394,1.026c-1.476,0.271-2.944,0.611-4.429,0.816
				c-1.48,0.234-2.961,0.478-4.447,0.646c-1.485,0.196-2.973,0.371-4.458,0.508c-2.976,0.312-5.95,0.53-8.925,0.733l-8.914,0.541
				c-5.937,0.34-11.863,0.684-17.77,1.201c-1.479,0.099-2.945,0.342-4.431,0.354c-1.483,0.061-2.972,0.092-4.452,0.191
				c-1.482,0.092-2.971,0.152-4.453,0.271l-4.459,0.313l4.365-0.991c1.459-0.316,2.928-0.574,4.395-0.864
				c1.467-0.296,2.94-0.527,4.414-0.786c1.469-0.313,2.967-0.327,4.448-0.479c5.942-0.516,11.892-0.863,17.828-1.203l8.894-0.541
				c2.959-0.203,5.916-0.419,8.856-0.729c1.473-0.136,2.94-0.308,4.403-0.502c1.469-0.164,2.922-0.406,4.379-0.635
				c1.462-0.202,2.894-0.535,4.342-0.801c1.441-0.291,2.859-0.672,4.291-1.003l0.275-0.063l0.26,0.07
				c1.699,0.455,3.386,0.952,5.103,1.339c1.705,0.433,3.433,0.772,5.155,1.138c1.732,0.32,3.463,0.647,5.206,0.912
				c1.739,0.282,3.487,0.524,5.239,0.746l2.629,0.32c0.879,0.092,1.754,0.214,2.637,0.281c0.884,0.062,1.762,0.16,2.637,0.324
				l2.631,0.438c1.756,0.29,3.516,0.593,5.266,0.964c0.875,0.185,1.746,0.377,2.613,0.619l1.289,0.38l1.254,0.456L191.021,240.089z"
				/>
		</g>
		<g>
			<path fill="#739999" d="M150.392,233.375c0.375-3.75,0.125-28.875-0.875-33.125"/>
			<path fill="#808285" d="M149.751,201.654c0.066,0.449,0.189,0.986,0.233,1.619c0.063,0.629,0.134,1.34,0.21,2.115
				c0.178,1.557,0.264,3.365,0.415,5.309c0.138,1.941,0.232,4.015,0.354,6.088c0.197,4.148,0.357,8.297,0.42,11.419
				c0.02,1.567,0.068,2.853,0.031,3.8c-0.019,0.936-0.028,1.471-0.028,1.471l-1.99-0.199c0,0,0.039-0.5,0.106-1.375
				c0.089-0.861,0.119-2.172,0.193-3.713c0.127-3.097,0.215-7.237,0.269-11.383c0.003-2.07,0.032-4.144,0.013-6.084
				c-0.034-1.939-0.012-3.761-0.094-5.304c-0.03-0.776-0.057-1.487-0.081-2.117c-0.007-0.633-0.097-1.179-0.136-1.631
				c-0.096-0.903-0.15-1.419-0.15-1.419S149.602,200.761,149.751,201.654z"/>
		</g>
		<g>
			<path fill="#A7A9AC" d="M192.329,240.333c1.267-2.396,1.104-32.832,1.104-33.999"/>
			<path fill="#808285" d="M193.935,206.333c0,0-0.078,8.519-0.335,17.035c-0.129,4.259-0.304,8.516-0.534,11.704
				c-0.115,1.593-0.244,2.92-0.387,3.842c-0.072,0.461-0.148,0.82-0.215,1.061c-0.077,0.237-0.133,0.358-0.133,0.358
				s0.052-0.124,0.121-0.362c0.06-0.242,0.125-0.602,0.184-1.063c0.113-0.924,0.205-2.251,0.273-3.846
				c0.137-3.188,0.187-7.445,0.189-11.701c0.007-8.514-0.165-17.026-0.165-17.026L193.935,206.333z"/>
		</g>
	</g>
</g>
<g id="Arm_Front_1_">
	<g id="Short_Sleeve">
		<path fill="#CCB69D" d="M99.079,225.125c5.854,3.375,6.875,9.932,1.554,14.302c-6.666,5.472-14.675,4.728-17.104-5.093
			C82.171,228.85,92.142,221.625,99.079,225.125z"/>
		<path fill="#CCB69D" d="M91.202,195.93c-3.117-7.404-17.353-7.199-20.947-1.666c-2.619,4.031-0.155,21.322,1.595,24.403
			c2.356,4.147,9.584,12.5,11.679,15.667c5.605-0.428,14.553-7.175,15.551-9.209c-3.264-3.525-7.316-10.754-8.396-12.958
			C89.747,210.255,92.521,199.061,91.202,195.93z"/>
		<path fill="#4C6666" d="M91.202,195.93c-3.117-7.404-17.353-7.199-20.947-1.666c-2.619,4.031-4.322,19.822-2.572,22.903
			c2.355,4.147,26.947-3.979,25.834-6.167C91.183,206.417,92.521,199.061,91.202,195.93z"/>
	</g>
</g>
<g id="Gloves">
	<path id="Glove_1_" fill="#736658" d="M81.1,233.002c0.573,0.453,1.617,1.096,2.167,1.5c2,9.042,10,11.626,17.782,5.094
		c5.267-4.423,4.376-11.268-1.459-14.646c-0.109-0.549-0.677-1.948-1.198-3.137C96.933,221.959,81.923,231.438,81.1,233.002z"/>
	<g id="Gauntlet_1_">
		<path fill="#A7A9AC" d="M92.931,230.5c3.958-2.458,5.646-4.063,6.146-5.375c-1.653-2.566-2.182-4.199-3.479-6.042
			c-3.125-4.437-26.354-4.083-24.917-0.333c1.449,3.777,8.516,12.611,12.848,15.584c0.612,0.385,3.926-0.928,5.551-1.709"/>
		<path fill="#808285" d="M85.626,234.121c-0.601,0.193-1.184,0.416-1.871,0.424c-0.09-0.008-0.182-0.013-0.288-0.068
			c-0.105-0.062-0.14-0.095-0.212-0.143l-0.385-0.27c-0.261-0.17-0.509-0.369-0.756-0.565c-2-1.56-3.709-3.408-5.397-5.269
			c-1.661-1.888-3.237-3.853-4.62-5.971c-0.699-1.076-1.348-2.093-1.872-3.398c-0.037-0.086-0.117-0.444-0.058-0.672
			c0.047-0.237,0.154-0.461,0.287-0.621c0.266-0.334,0.576-0.53,0.879-0.699c0.613-0.328,1.238-0.525,1.863-0.689
			c2.502-0.639,5.035-0.777,7.557-0.81c2.523-0.019,5.045,0.127,7.548,0.489c1.251,0.186,2.498,0.427,3.726,0.789
			c1.209,0.391,2.454,0.828,3.473,1.774c0.254,0.241,0.455,0.562,0.609,0.81c0.17,0.257,0.332,0.535,0.49,0.815
			c0.316,0.56,0.596,1.119,0.876,1.681c0.556,1.119,1.132,2.213,1.767,3.283l0.057,0.094l-0.036,0.088
			c-0.287,0.683-0.757,1.23-1.252,1.722c-0.501,0.489-1.043,0.927-1.601,1.34c-1.109,0.829-2.293,1.545-3.481,2.242
			c1.147-0.767,2.28-1.558,3.348-2.417c0.533-0.434,1.048-0.889,1.513-1.385c0.459-0.493,0.875-1.041,1.099-1.646l0.019,0.181
			c-0.716-1.032-1.347-2.129-1.941-3.23c-0.301-0.546-0.602-1.093-0.922-1.609c-0.313-0.494-0.676-1.093-1.039-1.442
			c-0.848-0.751-2.045-1.164-3.205-1.491c-1.178-0.327-2.391-0.557-3.615-0.723c-2.448-0.33-4.934-0.446-7.411-0.405
			c-1.237,0.022-2.474,0.09-3.703,0.212c-1.226,0.123-2.45,0.279-3.622,0.576c-0.584,0.146-1.16,0.33-1.654,0.589
			c-0.242,0.127-0.465,0.284-0.588,0.442c-0.069,0.078-0.094,0.149-0.11,0.213c-0.009,0.084-0.025,0.041,0.032,0.252
			c0.406,1.021,1.063,2.152,1.722,3.17c1.344,2.074,2.851,4.059,4.413,5.992c1.589,1.91,3.264,3.767,5.111,5.412
			c0.231,0.205,0.459,0.414,0.711,0.602l0.369,0.289c0.146,0.115,0.187,0.165,0.332,0.173c0.568,0.024,1.195-0.163,1.783-0.328
			c1.191-0.364,2.365-0.797,3.512-1.298C87.965,233.191,86.821,233.71,85.626,234.121z"/>
	</g>
</g>
<g id="Shoulders">
	<g id="Champion_1_">
		<path fill="#A7A9AC" d="M109.942,201.732c-1.117-3.067-15.613-15.676-27.318-17.594c-11.705-1.921-30.49,10.188-30.273,14.521
			c0.216,4.332,15.096,12.567,30.523,12.299C98.301,210.689,111.064,204.798,109.942,201.732z"/>
		<g>
			<path fill="#808285" d="M86.286,185.008c0.435,0.073,1.076,0.199,1.877,0.415c1.604,0.418,3.862,1.191,6.42,2.468
				c2.563,1.256,5.416,3,8.262,5.166c1.41,1.094,2.854,2.256,4.209,3.574c0.679,0.657,1.348,1.34,1.992,2.072
				c0.32,0.369,0.636,0.744,0.936,1.156c0.303,0.412,0.594,0.824,0.85,1.412l0.047,0.107l0.05,0.151l0.026,0.102l0.037,0.202
				c0.034,0.264,0.017,0.446-0.012,0.657c-0.066,0.397-0.218,0.724-0.38,0.998c-0.333,0.545-0.724,0.935-1.119,1.288
				c-0.797,0.693-1.636,1.212-2.485,1.683c-1.692,0.935-3.449,1.585-5.15,2.156c-3.416,1.114-6.703,1.727-9.527,2.063
				c-2.828,0.348-5.199,0.4-6.849,0.383c-1.655-0.021-2.595-0.103-2.595-0.103s0.939-0.088,2.57-0.298
				c1.629-0.207,3.948-0.551,6.684-1.119c2.736-0.583,5.894-1.395,9.136-2.594c1.616-0.598,3.249-1.325,4.793-2.18
				c0.765-0.435,1.508-0.918,2.118-1.463c0.299-0.27,0.566-0.563,0.716-0.826c0.076-0.129,0.112-0.246,0.122-0.311
				c0.003-0.021,0.001-0.074,0.003-0.045c0.001,0.008,0.005,0.02,0.011,0.027c0.002,0.006-0.014-0.047-0.019-0.067l-0.013-0.042
				l-0.008-0.021c-0.005-0.02,0.037,0.109,0.016,0.047l-0.022-0.053c-0.252-0.597-0.858-1.371-1.418-2.035
				c-0.583-0.682-1.212-1.34-1.854-1.975c-1.289-1.27-2.614-2.479-3.955-3.583c-2.676-2.215-5.338-4.089-7.719-5.539
				c-2.383-1.45-4.48-2.47-5.996-3.092c-1.51-0.626-2.418-0.906-2.418-0.906S85.853,184.927,86.286,185.008z"/>
		</g>
		<path fill="#A7A9AC" d="M173.29,199.15c1.008-3.502,11.695-15.148,23.865-16.805c12.172-1.654,31.428,11.108,31.428,16.045
			c0,4.938-10.217,13.832-26.406,12.771C185.984,210.1,172.282,202.648,173.29,199.15z"/>
		<g>
			<path fill="#808285" d="M196.468,182.512c-0.453,0.1-1.098,0.295-1.911,0.551c-1.626,0.521-3.888,1.442-6.394,2.908
				c-2.504,1.465-5.258,3.453-7.901,5.914c-1.328,1.223-2.601,2.59-3.798,4.026c-0.59,0.724-1.154,1.479-1.617,2.255
				c-0.238,0.383-0.436,0.784-0.557,1.127l-0.045,0.127c0.02-0.072-0.02,0.089-0.021,0.109c0.015-0.027,0.007,0,0.013,0.059
				c0.012,0.098,0.051,0.23,0.122,0.379c0.289,0.618,0.955,1.291,1.644,1.861c0.701,0.582,1.479,1.105,2.275,1.591
				c1.6,0.963,3.264,1.81,4.926,2.528c3.32,1.443,6.568,2.484,9.388,3.248c2.825,0.756,5.226,1.234,6.917,1.533
				c1.689,0.301,2.668,0.434,2.668,0.434s-0.246,0.001-0.708,0.003c-0.462-0.005-1.142,0.002-2.004-0.044
				c-1.726-0.08-4.196-0.276-7.123-0.811c-2.927-0.526-6.313-1.384-9.808-2.742c-1.742-0.693-3.527-1.475-5.248-2.495
				c-0.86-0.513-1.713-1.069-2.526-1.726c-0.804-0.676-1.619-1.375-2.208-2.529c-0.143-0.293-0.256-0.635-0.297-1.026
				c-0.018-0.187-0.021-0.405,0.023-0.676l0.059-0.25l0.076-0.222c0.213-0.578,0.472-1.053,0.75-1.498
				c0.554-0.9,1.172-1.699,1.812-2.467c1.278-1.533,2.694-2.879,4.11-4.109c2.846-2.455,5.832-4.34,8.541-5.618
				c2.703-1.304,5.129-1.966,6.832-2.276c0.854-0.162,1.535-0.236,1.992-0.271c0.461-0.037,0.707-0.059,0.707-0.059
				S196.917,182.402,196.468,182.512z"/>
		</g>
	</g>
</g>
<g id="Heads">
	<path id="Male_6_" fill="#CCB69D" d="M56.169,164.313l0.072,0.09c11.539,29.404,48.424,38.683,64.766,41.595
		c10.338,1.842,47.23,2.959,58.311-0.581c13.154-4.202,36.619-16.436,40.784-30.182c2.71-8.944,3.947-21.709,4.998-41.854
		c1.252-23.994-9.856-62.506-88.083-62.506C39.659,70.875,39.892,136.757,56.169,164.313z"/>
</g>
<g id="Ears">
	<path id="Human_1_" fill="#CCB69D" d="M56.434,138.84c-10.25-5.625-21.56-6.398-27.592,0.887
		c-11.072,13.375,9.112,43.824,21.929,44.937c12.24,1.063,16.609-8.787,14.621-14.038C61.392,165.75,57.788,147.145,56.434,138.84z"
		/>
</g>
<g id="Facial_Hair_1_">
	<g id="Full">
		<path fill="#804040" d="M71.184,202.5c12.976,21.266,58.892,42.5,81.897,42.5c14.387,0,55.074-17.128,55.074-42.209
			c9.57-1.705,16.76-10.889,16.969-21.105c-40.055,5.381-36.334-12.656-65.232-1.893c-27.602-7.382-16.523-1.116-47.971,2.561
			c-14.123-1.791-21.133-2.977-24.654-5.854c-3.378-2.761-4.938-15.938-5.75-17.5c-4.125-3.375-17.156-2.063-20.844-0.5
			C61.684,176,65.183,192.667,71.184,202.5z"/>
		<g>
			<path fill="#4C2626" d="M93.954,184.281l-7.017,0.261l0.399-0.403c0.117,2.543,0.801,5.051,2.223,7.113
				c1.411,2.074,3.447,3.643,5.661,4.848c2.237,1.188,4.67,2.021,7.153,2.635c2.496,0.604,5.037,1.039,7.602,1.32
				c5.132,0.569,10.327,0.653,15.516,0.549c5.191-0.121,10.381-0.477,15.57-0.912c5.191-0.436,10.364-1.035,15.594-1.482
				c1.313-0.105,2.615-0.215,3.984-0.221c0.73,0.029,1.309,0.033,2.009,0.113c0.677,0.065,1.351,0.129,1.996,0.223
				c2.613,0.347,5.188,0.771,7.769,1.174c2.578,0.396,5.152,0.807,7.732,1.168c2.578,0.38,5.165,0.669,7.753,0.969
				c2.591,0.26,5.187,0.499,7.79,0.592c2.604,0.127,5.21,0.104,7.823,0.019c-2.597,0.272-5.213,0.478-7.831,0.467
				c-2.619,0.042-5.236-0.063-7.854-0.187c-5.23-0.309-10.441-0.895-15.623-1.572c-2.59-0.334-5.18-0.688-7.754-0.959
				c-0.649-0.076-1.275-0.129-1.899-0.178c-0.597-0.065-1.327-0.063-1.901-0.08c-1.242,0.023-2.544,0.152-3.83,0.277l-7.775,0.854
				c-2.6,0.277-5.202,0.547-7.811,0.783c-5.215,0.483-10.451,0.82-15.703,0.906c-5.25,0.098-10.529-0.059-15.77-0.736
				c-5.217-0.68-10.506-1.844-15.229-4.479c-2.33-1.336-4.472-3.144-5.935-5.46c-1.485-2.308-2.097-5.068-2.063-7.73l0.004-0.411
				l0.396,0.006l6.999,0.101c1.168,0.01,2.336-0.027,3.505-0.021l3.506-0.009C98.612,183.979,96.284,184.169,93.954,184.281z"/>
		</g>
	</g>
</g>
<g id="Helmets">
	<g id="Champion">
		<path id="Female_1_" fill="#939598" d="M45.767,125c33.496,6.646,154.417,4.869,180.5,9.25C225.44,110.237,221.743,66,143.517,66
			C80.553,66,49.153,98.078,45.767,125z"/>
		<path fill="#A7A9AC" d="M171.454,174.063c-4.316-4.293-12.5-23.125-1.875-30.75s39.188-5.063,46.813,2.188
			c4.486,4.266,4.486,21.613,0,25.875c-2.5,2.375-16.625,6.959-20.042,9.625s-12.583,24.25-11.333,25s32.432-4.939,36.917-11.333
			c7.25-10.333,12.583-54.667,4.024-78.417c-33.441-10.75-72.941-68.75-72.941-68.75s-44.25,66.5-106.835,68.834
			c-8.416,21.917,0.334,62.667,6.084,69.417c7.901,9.276,68.666,23.5,70.166,22.875s-6.411-23.292-9.25-26.625
			s-12.317-7.836-15.083-9.75c-6.5-4.5-9.229-18.749-3.708-26.25s40.604-9.854,49.313-1.438c8.707,8.418,4.5,20.5-1.015,29.668
			c1.084,3.832,9.703,10.832,14.64,10.832C162.265,185.063,170.913,176.813,171.454,174.063z"/>
		<g>
			<path fill="#808285" d="M168.762,143.986c-0.269,0.231-0.503,0.498-0.754,0.744c-0.476,0.521-0.917,1.074-1.293,1.668
				c-0.382,0.588-0.714,1.213-0.978,1.862c-0.15,0.317-0.26,0.651-0.367,0.984c-0.121,0.33-0.211,0.67-0.289,1.012
				c-0.094,0.338-0.164,0.679-0.215,1.028c-0.064,0.345-0.121,0.689-0.147,1.041c-0.084,0.697-0.108,1.4-0.108,2.099
				c0,0.703,0.034,1.404,0.092,2.103c0.063,0.699,0.155,1.396,0.271,2.089c0.479,2.769,1.332,5.47,2.452,8.044
				c0.563,1.287,1.195,2.542,1.908,3.744c0.705,1.201,1.488,2.379,2.431,3.341l0.174,0.178l-0.053,0.218
				c-0.226,0.924-0.72,1.547-1.164,2.23c-0.481,0.643-0.993,1.253-1.526,1.839c-0.539,0.58-1.099,1.142-1.676,1.683
				c-0.584,0.533-1.171,1.063-1.791,1.555c-0.607,0.508-1.25,0.972-1.898,1.428c-0.65,0.455-1.334,0.867-2.027,1.263l-1.079,0.539
				c-0.368,0.166-0.754,0.302-1.131,0.451c-0.388,0.128-0.798,0.217-1.196,0.324c-0.432,0.032-0.826,0.12-1.293,0.086
				c-0.734-0.036-1.654-0.211-2.398-0.479c-0.387-0.125-0.768-0.261-1.131-0.431c-0.369-0.158-0.74-0.315-1.088-0.507
				c-0.719-0.354-1.4-0.764-2.074-1.184c-0.668-0.427-1.317-0.881-1.947-1.36c-0.625-0.488-1.246-0.979-1.83-1.517
				c-0.598-0.519-1.161-1.08-1.702-1.664c-0.542-0.582-1.06-1.19-1.517-1.857c-0.48-0.645-0.861-1.385-1.137-2.196l-0.058-0.166
				l0.103-0.175l1.01-1.729l0.959-1.758l0.895-1.789l0.816-1.822l0.729-1.859c0.226-0.626,0.416-1.264,0.625-1.896
				c0.191-0.637,0.334-1.285,0.505-1.93c0.146-0.646,0.238-1.307,0.362-1.959c0.092-0.656,0.13-1.32,0.198-1.98
				c0.021-0.661,0.006-1.325,0.016-1.989l-0.199-1.979c-0.152-0.645-0.269-1.301-0.445-1.942c-0.231-0.621-0.416-1.267-0.689-1.872
				c-0.313-0.586-0.574-1.207-0.93-1.771c-0.387-0.545-0.73-1.121-1.143-1.648l-1.326-1.518l1.398,1.457
				c0.436,0.51,0.814,1.072,1.221,1.612c0.379,0.56,0.666,1.175,1.004,1.763c0.299,0.608,0.511,1.254,0.77,1.883
				c0.202,0.646,0.346,1.313,0.521,1.97l0.275,2.021c0.016,0.678,0.055,1.359,0.043,2.039c-0.055,0.678-0.08,1.358-0.16,2.033
				c-0.111,0.67-0.193,1.346-0.328,2.012c-0.16,0.659-0.293,1.326-0.474,1.98c-0.2,0.646-0.38,1.301-0.596,1.945l-0.702,1.91
				l-0.792,1.871l-0.871,1.836l-0.944,1.797l-1.012,1.761l0.045-0.341c0.238,0.66,0.569,1.326,1.027,1.93
				c0.429,0.615,0.927,1.197,1.451,1.751c0.521,0.556,1.07,1.094,1.652,1.594c0.569,0.515,1.176,0.987,1.784,1.454
				c0.615,0.461,1.247,0.896,1.894,1.307c0.653,0.397,1.312,0.789,1.998,1.119c0.336,0.184,0.686,0.327,1.035,0.473
				c0.344,0.162,0.699,0.285,1.057,0.395c0.359,0.133,0.707,0.208,1.051,0.279c0.327,0.1,0.738,0.107,1.123,0.141
				c0.311,0.027,0.691-0.056,1.035-0.072c0.354-0.097,0.711-0.168,1.063-0.281c0.348-0.139,0.7-0.258,1.043-0.409l1.02-0.498
				c0.662-0.374,1.318-0.761,1.949-1.198c0.629-0.433,1.256-0.88,1.85-1.369c0.607-0.474,1.181-0.986,1.753-1.5
				c0.565-0.52,1.112-1.06,1.638-1.621c0.52-0.561,1.016-1.144,1.475-1.748c0.412-0.604,0.881-1.264,1.023-1.873l0.121,0.396
				c-1.038-1.076-1.822-2.292-2.545-3.536c-0.711-1.252-1.328-2.549-1.874-3.873c-1.086-2.648-1.896-5.416-2.326-8.25
				c-0.103-0.709-0.181-1.421-0.231-2.137c-0.041-0.713-0.07-1.43-0.041-2.148c0.025-0.718,0.076-1.435,0.186-2.145
				c0.041-0.357,0.109-0.708,0.188-1.061c0.064-0.354,0.148-0.701,0.256-1.045c0.093-0.345,0.195-0.688,0.33-1.021
				c0.123-0.339,0.246-0.675,0.41-0.993c0.293-0.652,0.652-1.275,1.062-1.861c0.399-0.594,0.873-1.133,1.378-1.635
				c0.266-0.236,0.516-0.494,0.793-0.714l0.85-0.644L168.762,143.986z"/>
		</g>
		<g>
			<path fill="#A7A9AC" d="M196.35,181c-3.417,2.666-12.583,24.25-11.333,25s31.917-5.333,36.917-11.333
				c1.897-2.278,5.337-9.715,6.583-22"/>
			<path fill="#808285" d="M228.452,173.672c-0.037,0.659-0.088,1.626-0.231,2.855c-0.284,2.449-0.722,5.974-1.894,10.082
				c-0.599,2.049-1.324,4.259-2.482,6.479c-0.581,1.092-1.271,2.281-2.428,3.182c-1.065,0.869-2.243,1.53-3.451,2.14
				c-4.856,2.394-10.309,3.997-15.777,5.452c-2.746,0.691-5.505,1.314-8.238,1.863c-1.365,0.277-2.729,0.52-4.084,0.729
				c-1.367,0.204-2.676,0.412-4.104,0.476c-0.186,0.004-0.369,0.004-0.612-0.017c-0.058-0.005-0.153-0.021-0.227-0.037
				c-0.022-0.001-0.122-0.032-0.194-0.062l-0.111-0.051c-0.015,0.002-0.349-0.252-0.213-0.152l-0.064-0.067
				c-0.078-0.089-0.149-0.201-0.198-0.313c-0.06-0.145-0.048-0.149-0.063-0.207l-0.026-0.146c-0.041-0.588,0.055-0.889,0.122-1.253
				c0.152-0.688,0.359-1.312,0.564-1.929c0.42-1.225,0.877-2.394,1.338-3.522c0.918-2.257,1.885-4.342,2.809-6.25
				c1.844-3.815,3.62-6.882,4.974-8.952c0.677-1.037,1.291-1.801,1.739-2.289c0.452-0.492,0.75-0.686,0.75-0.686
				s-0.275,0.227-0.668,0.753c-0.396,0.522-0.895,1.351-1.492,2.419c-1.195,2.143-2.645,5.344-4.267,9.223
				c-0.806,1.939-1.636,4.062-2.464,6.314c-0.406,1.128-0.809,2.294-1.162,3.482c-0.174,0.594-0.336,1.201-0.454,1.781
				c-0.058,0.271-0.091,0.618-0.077,0.684l-0.002-0.023l-0.032-0.09c-0.032-0.076-0.085-0.148-0.147-0.203
				c-0.034-0.027,0.017,0.018,0.02,0.021c0.148,0.115-0.17-0.125-0.163-0.119l-0.055-0.028c-0.034-0.015-0.097-0.026-0.077-0.024
				c0.008-0.004-0.007-0.002,0.018-0.002c0.084,0.006,0.23,0.004,0.375-0.004c2.471-0.207,5.19-0.81,7.866-1.343
				c2.694-0.563,5.421-1.205,8.126-1.911c2.711-0.683,5.405-1.434,8.018-2.271c2.605-0.848,5.162-1.723,7.488-2.819
				c1.161-0.544,2.266-1.153,3.205-1.845c0.902-0.623,1.559-1.604,2.145-2.613c1.154-2.034,1.998-4.143,2.695-6.105
				c1.362-3.948,2.147-7.381,2.598-9.793c0.224-1.207,0.408-2.16,0.507-2.813c0.11-0.649,0.169-0.998,0.169-0.998
				S228.495,173.02,228.452,173.672z"/>
		</g>
		<g>
			<path fill="#808285" d="M99.435,173.036c0.893,0.468,2.203,1.155,3.87,2.03c1.665,0.882,3.69,1.949,5.946,3.324
				c1.121,0.698,2.305,1.467,3.461,2.461c0.296,0.234,0.56,0.539,0.844,0.816c0.268,0.305,0.512,0.669,0.718,0.997
				c0.425,0.681,0.8,1.39,1.168,2.118c1.458,2.922,2.798,6.167,4.106,9.646c1.287,3.488,2.623,7.155,3.594,11.166
				c0.115,0.506,0.225,1.019,0.303,1.567c0.038,0.276,0.069,0.555,0.07,0.888c-0.001,0.167-0.006,0.35-0.072,0.615
				c-0.023,0.079-0.051,0.154-0.084,0.23c-0.063,0.117-0.125,0.22-0.225,0.324c-0.154,0.133-0.268,0.236-0.521,0.295l-0.099,0.017
				c-0.138,0.017-0.281,0.026-0.421,0.024l-0.229-0.015l-0.418-0.035l-0.797-0.096c-0.518-0.077-1.038-0.153-1.559-0.229
				c-2.071-0.33-4.143-0.722-6.225-1.143c-4.166-0.839-8.377-1.77-12.576-2.758c-4.191-1.014-8.367-2.086-12.465-3.213
				c-4.094-1.122-8.094-2.346-11.943-3.604c-3.852-1.255-7.531-2.604-10.969-4.042c-3.43-1.442-6.629-2.972-9.359-4.827
				c-1.35-0.941-2.633-1.941-3.496-3.296c-0.766-1.329-1.336-2.583-1.885-3.795c-1.067-2.416-1.822-4.588-2.383-6.394
				c-0.537-1.812-0.877-3.256-1.063-4.25c-0.202-0.989-0.31-1.516-0.31-1.516s0.143,0.518,0.41,1.491
				c0.242,0.978,0.713,2.381,1.324,4.153c0.646,1.762,1.504,3.874,2.676,6.201c0.59,1.149,1.25,2.406,2.015,3.59
				c0.79,1.096,2.01,2.027,3.335,2.867c2.679,1.675,5.88,3.055,9.292,4.396c3.425,1.327,7.11,2.544,10.946,3.744
				c3.836,1.195,7.844,2.307,11.918,3.412c4.078,1.099,8.244,2.146,12.424,3.129c4.173,1.007,8.359,1.957,12.494,2.813
				c2.07,0.422,4.123,0.836,6.146,1.197l1.508,0.249l0.736,0.103l0.35,0.035l0.155,0.012c-0.013-0.002-0.026,0.006-0.037,0.025
				l0.093-0.017c-0.185,0.058-0.258,0.097-0.357,0.201c-0.059,0.06-0.092,0.104-0.117,0.167c-0.01,0.018-0.018,0.031-0.021,0.051
				c-0.004,0.016,0.014-0.057,0.012-0.145c0.004-0.179-0.016-0.405-0.043-0.635c-0.059-0.459-0.15-0.939-0.251-1.419
				c-0.882-3.846-2.097-7.567-3.278-11.044c-1.214-3.471-2.424-6.746-3.736-9.654c-0.33-0.722-0.67-1.425-1.039-2.069
				c-0.194-0.332-0.363-0.612-0.584-0.884c-0.25-0.254-0.455-0.534-0.727-0.771c-1.027-0.981-2.15-1.803-3.215-2.545
				c-2.151-1.469-4.116-2.64-5.729-3.606c-1.621-0.957-2.882-1.735-3.734-2.276c-0.852-0.546-1.282-0.868-1.282-0.868
				S98.554,172.543,99.435,173.036z"/>
		</g>
		<g>
			<path fill="#808285" d="M50.272,115.965c0.682-0.071,1.366-0.102,2.042-0.205l2.026-0.308c1.349-0.22,2.707-0.356,4.043-0.644
				l4.007-0.841c1.339-0.263,2.642-0.687,3.963-1.022c1.317-0.347,2.634-0.703,3.922-1.158c1.293-0.432,2.593-0.841,3.878-1.291
				l3.818-1.46c1.286-0.456,2.513-1.052,3.768-1.583c1.247-0.546,2.504-1.071,3.715-1.696l3.664-1.807l3.586-1.956
				c1.209-0.629,2.354-1.369,3.529-2.056c1.172-0.695,2.342-1.39,3.475-2.148c1.139-0.747,2.293-1.468,3.416-2.237l3.349-2.341
				c2.196-1.607,4.414-3.19,6.535-4.899c2.157-1.662,4.235-3.425,6.313-5.184l3.068-2.697l3.004-2.771
				c1.979-1.872,3.938-3.768,5.841-5.717c3.818-3.887,7.484-7.924,10.994-12.091c1.735-2.099,3.489-4.183,5.154-6.338
				c1.667-2.144,3.321-4.331,4.839-6.545l0.007-0.011c0.063-0.093,0.147-0.177,0.246-0.245c0.437-0.298,1.032-0.188,1.331,0.248
				c2.376,3.46,4.878,6.876,7.417,10.244c2.543,3.368,5.146,6.694,7.808,9.971c2.657,3.279,5.387,6.5,8.151,9.69
				c1.392,1.587,2.774,3.18,4.202,4.735c1.408,1.572,2.859,3.103,4.302,4.644c1.47,1.514,2.924,3.044,4.433,4.519
				c1.484,1.501,3.025,2.94,4.551,4.397c1.562,1.419,3.106,2.856,4.716,4.22c1.584,1.393,3.22,2.723,4.854,4.056l2.5,1.941
				c0.838,0.638,1.704,1.24,2.557,1.862c0.845,0.633,1.734,1.2,2.611,1.785c0.875,0.591,1.758,1.167,2.672,1.695
				c1.793,1.118,3.662,2.1,5.543,3.058c0.959,0.441,1.91,0.903,2.877,1.327l2.959,1.144l-3.008-1.021
				c-0.985-0.384-1.957-0.807-2.939-1.21c-1.928-0.88-3.832-1.826-5.669-2.889c-0.937-0.503-1.843-1.054-2.74-1.621
				c-0.901-0.561-1.815-1.105-2.685-1.714c-0.875-0.599-1.767-1.179-2.631-1.795l-2.572-1.876c-1.684-1.293-3.385-2.569-4.997-3.949
				c-1.646-1.343-3.228-2.759-4.826-4.157c-1.562-1.437-3.142-2.857-4.662-4.337c-1.546-1.455-3.037-2.965-4.544-4.46
				c-1.479-1.521-2.968-3.034-4.414-4.587c-1.464-1.536-2.886-3.112-4.314-4.681c-1.422-1.576-2.817-3.173-4.192-4.789
				c-1.375-1.616-2.744-3.237-4.087-4.879c-2.695-3.277-5.331-6.601-7.909-9.972c-2.578-3.375-5.101-6.774-7.538-10.276l1.584-0.009
				c-1.564,2.311-3.201,4.501-4.88,6.689c-1.679,2.182-3.41,4.319-5.185,6.42c-3.568,4.185-7.295,8.235-11.172,12.134
				c-1.935,1.955-3.92,3.856-5.931,5.733l-3.049,2.777l-3.115,2.704c-2.11,1.764-4.219,3.53-6.409,5.196
				c-2.156,1.708-4.397,3.307-6.64,4.899l-3.426,2.301c-1.15,0.755-2.331,1.463-3.495,2.196c-1.157,0.744-2.354,1.424-3.549,2.104
				c-1.201,0.672-2.372,1.396-3.604,2.009l-3.659,1.907l-3.732,1.756c-1.234,0.607-2.512,1.114-3.783,1.642
				c-1.275,0.513-2.523,1.089-3.832,1.525l-3.884,1.387c-1.31,0.414-2.636,0.787-3.95,1.182c-1.309,0.417-2.645,0.735-3.984,1.044
				c-1.342,0.297-2.664,0.682-4.019,0.905l-4.054,0.722c-1.35,0.247-2.725,0.344-4.084,0.522l-2.045,0.231
				c-0.68,0.075-1.364,0.079-2.049,0.121l-4.102,0.199L50.272,115.965z"/>
		</g>
		<g>
			<path fill="#808285" d="M121.96,104.606c0.801-0.629,1.533-1.331,2.295-2.001c0.756-0.677,1.517-1.343,2.238-2.058l2.199-2.102
				c1.426-1.444,2.879-2.858,4.254-4.35c1.406-1.46,2.748-2.982,4.112-4.482c1.343-1.52,2.694-3.031,4-4.584
				c1.322-1.537,2.606-3.108,3.883-4.683c1.276-1.576,2.53-3.171,3.769-4.776c1.25-1.594,2.48-3.212,3.672-4.842
				c0.031-0.042,0.072-0.083,0.119-0.115c0.218-0.146,0.513-0.089,0.658,0.129c2.271,3.378,4.707,6.672,7.219,9.892
				c0.617,0.813,1.271,1.598,1.906,2.398l1.936,2.377c0.646,0.79,1.296,1.58,1.968,2.349c0.67,0.772,1.324,1.557,2.007,2.318
				l2.053,2.276c0.684,0.759,1.403,1.484,2.104,2.229c0.698,0.746,1.411,1.479,2.146,2.188l2.179,2.156l2.247,2.087
				c0.736,0.712,1.537,1.347,2.309,2.019c0.779,0.663,1.547,1.341,2.364,1.955l2.42,1.891l-2.498-1.79
				c-0.849-0.579-1.63-1.241-2.433-1.879c-0.793-0.65-1.617-1.263-2.377-1.952l-2.317-2.024c-0.763-0.687-1.501-1.397-2.249-2.1
				c-0.752-0.699-1.48-1.421-2.195-2.156c-0.718-0.734-1.455-1.448-2.154-2.198l-2.104-2.246c-0.698-0.751-1.371-1.527-2.058-2.289
				c-0.69-0.759-1.356-1.54-2.021-2.321c-0.664-0.78-1.341-1.553-1.98-2.356c-0.641-0.799-1.303-1.584-1.93-2.397
				c-2.545-3.223-5.004-6.502-7.324-9.907l0.777,0.014c-2.378,3.32-4.878,6.528-7.471,9.67c-1.296,1.569-2.598,3.135-3.939,4.667
				c-1.324,1.547-2.695,3.053-4.055,4.568c-1.402,1.478-2.792,2.965-4.24,4.396c-1.42,1.461-2.916,2.844-4.383,4.255
				c-1.518,1.358-3.021,2.729-4.615,4.001c-0.793,0.639-1.559,1.311-2.383,1.906l-2.449,1.816L121.96,104.606z"/>
		</g>
	</g>
</g>
<g id="Faces">
	<g id="Eyes">
		<g id="Male_2_">
			<path fill="#F1F2F2" stroke="#414042" stroke-miterlimit="10" d="M192.188,148.967c13.703,0,24.811,12.215,24.811,14.551
				s-11.107,13.076-24.811,13.076c-13.704,0-24.811-10.755-24.811-13.076C167.378,161.195,178.485,148.967,192.188,148.967z"/>
			<path fill="#414042" d="M188.76,149.383c1.716-0.715,11.409,0.526,14.793,2.198c3.222,2.661,5.274,6.681,5.274,11.185
				c0,5.349-2.897,10.019-7.209,12.531c-2.045,1.193-10.526,1.682-12.008,1.174c-5.685-1.96-9.768-7.354-9.768-13.705
				C179.843,156.736,183.523,151.566,188.76,149.383z"/>
			<path fill="#F1F2F2" stroke="#414042" stroke-miterlimit="10" d="M121.247,148.967c13.705,0,24.813,12.215,24.813,14.551
				s-11.109,13.076-24.813,13.076c-13.701,0-24.811-10.755-24.811-13.076C96.437,161.195,107.546,148.967,121.247,148.967z"/>
			<path fill="#414042" d="M117.823,149.383c3.428-1.133,11.407,0.526,14.793,2.198c3.221,2.661,5.273,6.681,5.273,11.185
				c0,5.213-2.753,9.783-6.887,12.336c-3.774,1.039-9.424,2.193-12.68,1.244c-5.502-2.057-9.42-7.361-9.42-13.58
				C108.903,156.736,112.583,151.566,117.823,149.383z"/>
		</g>
	</g>
	<g id="Eyebrows">
		<g id="Bushy">
			<path fill="#804040" d="M92.229,147.626c-0.029,0.252,0.141,0.517,0.389,0.575c0.037,0.009,0.08,0.013,0.117,0.014h0.002
				c0.141,0,0.243-0.041,0.729-0.232c1.723-0.686,6.967-2.771,13.924-2.771c2.084,0,4.16,0.191,6.172,0.571
				c7.785,1.467,15.021,2.241,20.925,2.241c9.045,0,14.232-1.82,14.232-4.996c0-0.504-0.365-0.543-1.342-0.649
				c-8.859-0.962-21.219-4.303-36.738-9.928c-0.988-0.359-1.998-0.541-3-0.541C98.563,131.909,92.327,146.785,92.229,147.626z"/>
			<g>
				<path fill="#4C2626" d="M92.483,146.809c0.191-0.522,0.488-1.285,0.932-2.225c0.897-1.867,2.238-4.555,4.51-7.346
					c1.141-1.381,2.509-2.807,4.258-3.961c1.717-1.135,3.952-2.039,6.298-1.731c0.278,0.033,0.55,0.027,0.838,0.095l0.876,0.229
					c0.609,0.143,1.11,0.341,1.659,0.527c1.079,0.375,2.17,0.756,3.272,1.141c2.201,0.775,4.457,1.474,6.701,2.22
					c2.26,0.692,4.498,1.463,6.739,2.082c1.118,0.321,2.226,0.642,3.324,0.954c1.103,0.288,2.192,0.573,3.265,0.852
					c1.067,0.299,2.137,0.498,3.172,0.758c1.035,0.248,2.049,0.492,3.047,0.674c0.996,0.189,1.961,0.402,2.902,0.557
					c0.943,0.141,1.855,0.279,2.73,0.41c0.439,0.079,0.857,0.096,1.324,0.21c0.117,0.029,0.248,0.08,0.379,0.169
					c0.136,0.111,0.227,0.276,0.248,0.424c0.006,0.075,0.018,0.127,0.014,0.221l-0.016,0.154c-0.014,0.105-0.012,0.199-0.039,0.311
					c-0.184,0.91-0.731,1.566-1.322,2.02c-1.2,0.907-2.452,1.264-3.45,1.535c-1.009,0.266-1.821,0.367-2.371,0.45
					c-0.552,0.069-0.846,0.104-0.846,0.104s0.291-0.055,0.837-0.156c0.543-0.113,1.341-0.279,2.327-0.584
					c0.971-0.313,2.192-0.736,3.266-1.635c0.531-0.437,0.974-1.082,1.082-1.783c0.021-0.084,0.015-0.198,0.022-0.297l0.009-0.154
					l-0.011-0.088c-0.019-0.101-0.06-0.127-0.262-0.18c-0.363-0.08-0.82-0.096-1.257-0.158c-0.887-0.106-1.809-0.22-2.765-0.334
					c-0.953-0.127-1.93-0.314-2.939-0.477c-1.011-0.152-2.037-0.37-3.088-0.59c-1.049-0.221-2.126-0.434-3.201-0.717
					c-1.08-0.27-2.181-0.545-3.291-0.822c-1.106-0.307-2.224-0.615-3.351-0.928c-2.261-0.602-4.515-1.348-6.79-2.026
					c-2.245-0.772-4.514-1.497-6.703-2.293c-1.1-0.396-2.189-0.784-3.263-1.17c-0.532-0.187-1.091-0.406-1.58-0.521l-0.752-0.213
					c-0.255-0.07-0.548-0.066-0.819-0.102c-2.109-0.288-4.158,0.447-5.831,1.482c-1.69,1.043-3.065,2.39-4.219,3.709
					c-2.294,2.674-3.8,5.244-4.767,7.068c-0.479,0.916-0.834,1.648-1.053,2.158c-0.226,0.508-0.299,0.796-0.299,0.796
					S92.286,147.335,92.483,146.809z"/>
			</g>
			<path fill="#804040" d="M222.579,147.626c0.028,0.252-0.142,0.517-0.39,0.575c-0.036,0.009-0.08,0.013-0.116,0.014h-0.002
				c-0.141,0-0.244-0.041-0.729-0.232c-1.723-0.686-6.967-2.771-13.924-2.771c-2.084,0-4.161,0.191-6.172,0.571
				c-7.785,1.467-15.021,2.241-20.924,2.241c-9.045,0-14.233-1.82-14.233-4.996c0-0.504,0.364-0.543,1.342-0.649
				c8.858-0.962,21.219-4.303,36.737-9.928c0.99-0.359,2-0.541,3-0.541C216.245,131.909,222.482,146.785,222.579,147.626z"/>
			<g>
				<path fill="#4C2626" d="M222.282,146.836c-0.219-0.51-0.574-1.242-1.053-2.158c-0.965-1.824-2.472-4.393-4.765-7.068
					c-1.155-1.318-2.53-2.666-4.22-3.709c-1.672-1.033-3.721-1.77-5.83-1.482c-0.271,0.037-0.567,0.034-0.82,0.102l-0.752,0.213
					c-0.491,0.113-1.049,0.332-1.58,0.521c-1.076,0.386-2.165,0.774-3.264,1.17c-2.19,0.795-4.457,1.522-6.703,2.293
					c-2.275,0.677-4.529,1.423-6.789,2.027c-1.127,0.312-2.245,0.621-3.35,0.927c-1.111,0.278-2.209,0.553-3.291,0.823
					c-1.076,0.282-2.154,0.496-3.203,0.716c-1.049,0.221-2.076,0.438-3.088,0.59c-1.009,0.163-1.985,0.35-2.938,0.477
					c-0.956,0.115-1.879,0.228-2.765,0.334c-0.438,0.063-0.895,0.078-1.256,0.158c-0.203,0.053-0.244,0.08-0.263,0.18l-0.011,0.088
					l0.008,0.154c0.008,0.099,0.003,0.213,0.023,0.297c0.109,0.701,0.552,1.345,1.082,1.783c1.074,0.9,2.295,1.321,3.266,1.635
					c0.986,0.305,1.785,0.471,2.327,0.584c0.546,0.1,0.837,0.156,0.837,0.156s-0.294-0.039-0.846-0.104
					c-0.549-0.083-1.362-0.183-2.371-0.45c-0.998-0.271-2.25-0.628-3.45-1.535c-0.591-0.457-1.14-1.111-1.323-2.02
					c-0.027-0.113-0.025-0.206-0.039-0.311l-0.015-0.154c-0.005-0.094,0.008-0.146,0.014-0.221c0.021-0.149,0.112-0.314,0.248-0.424
					c0.131-0.089,0.261-0.14,0.378-0.169c0.467-0.114,0.885-0.131,1.325-0.21c0.875-0.131,1.787-0.268,2.729-0.41
					c0.941-0.154,1.906-0.367,2.902-0.557c0.997-0.182,2.012-0.426,3.049-0.674c1.033-0.26,2.104-0.459,3.172-0.758
					c1.071-0.28,2.162-0.564,3.265-0.852c1.095-0.313,2.204-0.633,3.323-0.954c2.242-0.618,4.481-1.39,6.742-2.082
					c2.243-0.745,4.498-1.446,6.699-2.221c1.102-0.383,2.194-0.765,3.273-1.14c0.549-0.185,1.051-0.381,1.66-0.527l0.875-0.229
					c0.289-0.069,0.56-0.062,0.838-0.095c2.346-0.307,4.58,0.597,6.298,1.733c1.749,1.152,3.116,2.578,4.258,3.961
					c2.271,2.791,3.612,5.477,4.51,7.344c0.444,0.939,0.739,1.704,0.929,2.225c0.194,0.522,0.25,0.815,0.25,0.815
					S222.505,147.34,222.282,146.836z"/>
			</g>
		</g>
	</g>
</g>
</svg>
