<?xml version="1.0" encoding="utf-8"?>
<!-- Generator: Adobe Illustrator 16.0.0, SVG Export Plug-In . SVG Version: 6.00 Build 0)  -->
<!DOCTYPE svg PUBLIC "-//W3C//DTD SVG 1.1//EN" "http://www.w3.org/Graphics/SVG/1.1/DTD/svg11.dtd">
<svg version="1.1" id="Layer_1" xmlns="http://www.w3.org/2000/svg" xmlns:xlink="http://www.w3.org/1999/xlink" x="0px" y="0px"
	 width="256px" height="256px" viewBox="0 0 256 256" enable-background="new 0 0 256 256" xml:space="preserve">
<g id="Hair_Back">
	<path id="Long_1_" fill="#E5BF73" d="M52.314,246.288c9.167-4.491,17.042-11.524,16.917-17.248c2.875,5.067,5.125,16.095,3.5,21.46
		c32.833-27.342,11.279-113.9,9.25-125.818c-3.096-18.18-23.105-15.663-29.5-5.728C45.856,144.632,62.064,206.109,52.314,246.288z"
		/>
</g>
<g id="Backpack">
	<g id="Quiver">
		<path fill="#332C29" d="M56.154,208.594c4.739,0.422,27.673-10.486,29.093-13.066c-0.195-0.156-0.111-0.079-0.332-0.199
			c-0.244-0.092-0.642-0.229-1.113-0.287c-0.961-0.15-2.325-0.171-3.903,0.003c-1.581,0.168-3.374,0.53-5.237,1.069
			c-0.934,0.265-1.883,0.58-2.83,0.936c-0.953,0.346-1.897,0.754-2.84,1.166c-0.929,0.441-1.859,0.881-2.744,1.377
			c-0.896,0.473-1.75,0.998-2.565,1.522c-1.632,1.052-3.076,2.185-4.235,3.269c-1.162,1.08-2.029,2.123-2.557,2.911
			c-0.271,0.388-0.447,0.722-0.564,0.949C56.215,208.473,56.325,208.243,56.154,208.594z"/>
		
			<rect x="58.257" y="188.805" transform="matrix(0.802 -0.5973 0.5973 0.802 -112.7712 77.3261)" fill="#664F47" width="4.002" height="39.938"/>
		<polygon fill="#B3B3B3" points="41.674,191.637 46.737,190.633 49.15,186.07 56.305,195.678 53.894,200.242 48.833,201.244 		"/>
		
			<rect x="68.131" y="187.656" transform="matrix(0.8795 -0.476 0.476 0.8795 -90.3717 58.4089)" fill="#664F47" width="4.001" height="39.942"/>
		<polygon fill="#B3B3B3" points="54.209,187.975 59.363,187.709 62.407,183.539 68.108,194.075 65.066,198.246 59.913,198.511 		
			"/>
		
			<rect x="72.638" y="183.971" transform="matrix(0.9895 -0.1442 0.1442 0.9895 -28.6322 12.8967)" fill="#664F47" width="4.002" height="39.937"/>
		<polygon fill="#B3B3B3" points="66.452,180.029 71.379,181.557 75.674,178.689 77.396,190.545 73.104,193.412 68.172,191.886 		
			"/>
		<path fill="#4F3E37" d="M73.424,233.725c4.316,4.236,17.861,5.436,20.091,3.217c6.177-6.133-3.8-38.36-8.275-41.41l-2.296,1.031
			c-0.63,0.352-1.354,0.767-2.178,1.23c-1.303,0.734-2.828,1.58-4.479,2.43c-0.826,0.424-1.68,0.861-2.559,1.278
			c-0.871,0.435-1.771,0.838-2.664,1.261c-0.902,0.398-1.807,0.797-2.695,1.189c-0.89,0.39-1.777,0.748-2.639,1.094
			c-1.723,0.691-3.35,1.296-4.762,1.801c-1.432,0.508-2.625,0.93-3.461,1.228c-0.627,0.241-1.053,0.405-1.24,0.477
			c-0.078,0.13-0.158,0.261-0.219,0.39C54.329,212.654,64.95,225.41,73.424,233.725z"/>
	</g>
</g>
<g id="Feet_1_">
	<path fill="#4C423D" d="M162.981,229.514c0-9.576,4.068-16.514,11.303-16.514h6.549c7.235,0,14.148,6.938,14.148,16.512v12.139
		c0,9.578-6.913,12.35-14.148,12.35h-6.549c-7.236,0-11.303-2.773-11.303-12.35V229.514z"/>
	<path fill="#4C423D" d="M84.981,241.65v-12.139c0-9.574,4.994-16.513,12.229-16.513h6.549c7.236,0,13.224,6.938,13.224,16.513
		v12.139c0,9.578-5.987,12.35-13.224,12.35h-6.549C89.974,254,84.981,251.227,84.981,241.65L84.981,241.65z"/>
</g>
<g id="Arm_Back_1_">
	<g id="Short_Sleeve_1_">
		<path fill="#CCB69D" d="M208.395,223.771c5.854,3.375,7.022,10.285,1.702,14.655c-6.665,5.472-16.698,2.156-17.615-7.177
			C191.93,225.627,201.458,220.271,208.395,223.771z"/>
		<path fill="#CCB69D" d="M172.026,197.104c1.049,6.223,11.65,26.228,20.455,34.146c3.417,0.417,13.167-5.083,15.914-7.479
			c-3.602-4.959-13.866-28.896-18.857-31.156C181.813,189.111,171.07,191.436,172.026,197.104z"/>
		<path fill="#4C6666" d="M172.026,197.104c1.049,6.223,2.83,12.896,9.455,21.396c3.417,0.417,22-6.249,22.5-7.916
			s-9.452-15.708-14.443-17.969C181.813,189.111,171.07,191.436,172.026,197.104z"/>
	</g>
</g>
<g id="Torso">
	<g id="Harness">
		<path fill="#739999" d="M82.508,194.377c0.261-5.294,112.431-6.158,112.702,0c0.681,15.477,1.578,44.424-0.506,45.623
			c-2.914,1.677-108.555,1.764-111.721-0.059C80.64,238.596,81.764,209.443,82.508,194.377z"/>
		<path fill="#4F3E37" d="M195.856,233.063c-3.309,0.444-25.79,0.037-39.375-3.063c-2.54-3.001-1.249-5.482,2.167-7.958
			c17.583,2.733,31.026,3.533,37.333,3.125C196.372,226.721,196.102,231.529,195.856,233.063z"/>
		<path fill="#4F3E37" d="M153.309,231.322c-15.946-6.725-33.394-20.02-46.132-29.727c-2.61-1.988-5.075-3.867-7.16-5.404
			c-1.508-1.11-2.212-2.908-1.998-4.644c1.004-0.798,9.921-1.382,11.365-0.835c1.23,0.932,2.523,1.915,3.854,2.928
			c12.314,9.385,29.18,22.235,43.958,28.467c2.544,1.072,3.737,4.006,2.664,6.55c-0.805,1.911-2.659,3.059-4.608,3.059
			C154.603,231.716,153.943,231.59,153.309,231.322z"/>
		<path fill="#4F3E37" d="M81.842,210.65c-0.443-1.399-0.61-8.941,0.384-10.465c1.166-0.1,2.371,0.207,3.388,0.957
			c10.955,8.067,48.234,19.85,68.574,18.125c2.755-0.225,5.171,1.812,5.401,4.563c0.231,2.752-1.812,5.17-4.563,5.401
			c-1.629,0.138-3.332,0.203-5.102,0.203C127.567,229.436,95.115,218.973,81.842,210.65z"/>
		<ellipse fill="#939598" stroke="#4F3E37" stroke-miterlimit="10" cx="155.606" cy="225.052" rx="12.25" ry="7.823"/>
	</g>
</g>
<g id="Arm_Front_1_">
	<g id="Short_Sleeve">
		<path fill="#CCB69D" d="M102.543,225.125c5.854,3.375,6.875,9.932,1.554,14.302c-6.666,5.472-14.675,4.728-17.104-5.093
			C85.635,228.85,95.606,221.625,102.543,225.125z"/>
		<path fill="#CCB69D" d="M94.667,195.93c-3.117-7.404-17.353-7.199-20.947-1.666c-2.619,4.031-0.155,21.322,1.595,24.403
			c2.356,4.147,9.584,12.5,11.679,15.667c5.604-0.428,14.553-7.175,15.551-9.209c-3.264-3.525-7.316-10.754-8.396-12.958
			C93.211,210.255,95.986,199.061,94.667,195.93z"/>
		<path fill="#4C6666" d="M94.667,195.93c-3.117-7.404-17.353-7.199-20.947-1.666c-2.619,4.031-4.322,19.822-2.572,22.903
			c2.355,4.147,26.947-3.979,25.834-6.167C94.647,206.417,95.986,199.061,94.667,195.93z"/>
	</g>
</g>
<g id="Heads">
	<path id="Female_4_" fill="#CCB69D" d="M53.946,150.729c2.202,8.022,4.827,17.031,7.648,21.854
		c16.137,27.585,89.116,34.156,98.846,34.156c10.5,0,50.779-8.087,62.305-30.255c2.584-4.969,5.902-26.484,5.319-43.437
		c-0.825-24.013-9.856-62.506-88.083-62.506C55.946,70.542,45.385,119.542,53.946,150.729z"/>
</g>
<g id="Hairs_1_">
	<g id="Girl_Hairband">
		<path id="Female_3_" fill="#E5BF73" d="M55.727,153.583c-0.063-4.478-4.557-15.333,2.193-30.166
			c2.228,8.812,18.414,33.772,25.726,34.583c-1.478-8.311,4.334-28.333,28.69-35.583c3.375,5.375,1.875,11.749-0.332,16.333
			c3.232-0.125,33.499-12.529,36.167-20.333c3.5,3.333,1.644,23.583-0.523,27.583c3.148,0.275,36.854-19.021,39.191-29.458
			c4.5,4.5,3.643,20.125,3.143,23.125c16.375-0.667,19.748-16.982,24.334-17.334c9,7.667,15.333,23.167,19.333,30.667
			c6.172-6.993,14.083-60.25-10.341-78.359c-5.813-3.065-22.172-17.464-22.688-17.883c-9.607-8.667-53.188-15.291-90.973-5.925
			C50.481,65.5,41.148,113.666,45.481,136.416C47.898,149.104,55.819,160.271,55.727,153.583z"/>
		<path fill="#739999" d="M54.106,138.125C78.481,86.5,134.815,59.333,223.308,74.641C221.731,68,209.544,59.375,200.62,56.758
			c-28.947-8.487-87.526-3.98-118.306,19.576C63.54,90.702,47.647,111.5,47.199,134.799
			C47.168,136.318,53.777,138.823,54.106,138.125z"/>
	</g>
</g>
<g id="Ears">
	<g id="Elf_1_">
		<path fill="#CCB69D" d="M64.137,158.5c1.994,10.165,5.943,19.456,4.627,20.7c-20.617,19.467-47.533-36.45-52.612-54.207
			c-2.18-7.621,25.421,5.187,42.912,13.849C60.842,139.577,62.385,149.57,64.137,158.5z"/>
		<path fill="#998976" d="M58.863,149.568c-0.856,1.796-2.489,5.51-1.149,8.904c1.572,3.988,6.883,9.682,8.695,11.496
			c0.106,0.928,0.268,2.776,0.163,3.377c-0.92,5.279-9.897,5.674-11.937,3.705c0.145-1.207,5.877-3.871,5.703-9.31
			c-10.528-22.243-32.819-36.197-37.76-38.785c4.664-1.446,27.096,11.323,33.133,15.909
			C56.418,145.402,57.778,147.57,58.863,149.568z"/>
	</g>
</g>
<g id="Faces">
	<g id="Mouths_1_">
		<g id="Smile">
			<path fill="#414042" d="M173.073,191.662c-0.854,0.554-2.146,1.218-3.768,1.829c-1.617,0.62-3.559,1.204-5.691,1.622
				c-1.066,0.201-2.176,0.4-3.32,0.492c-1.14,0.099-2.324,0.164-3.485,0.127c-2.363-0.099-4.638-0.432-6.753-0.889
				c-2.111-0.449-4.047-1.005-5.674-1.58c-1.627-0.563-2.948-1.154-3.834-1.647c-0.445-0.241-0.773-0.478-0.98-0.658
				c-0.209-0.181-0.273-0.313-0.273-0.313s0.098,0.111,0.334,0.226c0.232,0.122,0.603,0.241,1.072,0.385
				c0.945,0.279,2.323,0.585,3.98,0.914c1.66,0.317,3.6,0.656,5.681,0.952c1.039,0.158,2.117,0.27,3.206,0.393
				c1.086,0.119,2.206,0.201,3.285,0.226c1.109,0.043,2.197,0.014,3.286-0.06c1.083-0.086,2.155-0.17,3.19-0.31
				c2.07-0.269,3.998-0.626,5.643-0.984c1.64-0.372,2.998-0.743,3.922-1.081c0.459-0.172,0.82-0.318,1.051-0.445
				c0.235-0.12,0.35-0.213,0.35-0.213S173.938,191.117,173.073,191.662z"/>
		</g>
	</g>
	<g id="Eyes">
		<g id="Male_2_">
			<path fill="#F1F2F2" stroke="#414042" stroke-miterlimit="10" d="M195.653,148.967c13.703,0,24.811,12.215,24.811,14.551
				s-11.107,13.076-24.811,13.076c-13.704,0-24.811-10.755-24.811-13.076C170.843,161.195,181.95,148.967,195.653,148.967z"/>
			<path fill="#414042" d="M192.225,149.383c1.716-0.715,11.409,0.526,14.793,2.198c3.222,2.66,5.274,6.681,5.274,11.185
				c0,5.349-2.897,10.019-7.209,12.531c-2.045,1.192-10.526,1.682-12.008,1.174c-5.685-1.96-9.768-7.355-9.768-13.705
				C183.308,156.736,186.988,151.566,192.225,149.383z"/>
			<path fill="#F1F2F2" stroke="#414042" stroke-miterlimit="10" d="M124.711,148.967c13.704,0,24.812,12.215,24.812,14.551
				s-11.108,13.076-24.812,13.076c-13.701,0-24.811-10.755-24.811-13.076C99.901,161.195,111.01,148.967,124.711,148.967z"/>
			<path fill="#414042" d="M121.286,149.383c3.428-1.133,11.409,0.526,14.793,2.198c3.221,2.66,5.274,6.681,5.274,11.185
				c0,5.213-2.753,9.783-6.886,12.336c-3.774,1.039-9.424,2.193-12.68,1.244c-5.502-2.057-9.42-7.361-9.42-13.58
				C112.368,156.736,116.047,151.566,121.286,149.383z"/>
		</g>
	</g>
	<g id="Eyebrows">
		<g id="Nice_1_">
			<path fill="#414042" d="M100.139,152.365c-0.949,1.001-1.362-5.516,1.091-8.188c2.452-2.674,23.481-9.427,32.251-2.69
				C134.247,142.074,111.909,139.943,100.139,152.365z"/>
			<path fill="#414042" d="M220.095,152.365c0.949,1.001,1.363-5.516-1.09-8.188c-2.453-2.674-23.481-9.427-32.252-2.69
				C185.987,142.074,208.325,139.943,220.095,152.365z"/>
		</g>
	</g>
</g>
</svg>
