<?xml version="1.0" encoding="utf-8"?>
<!-- Generator: Adobe Illustrator 16.0.0, SVG Export Plug-In . SVG Version: 6.00 Build 0)  -->
<!DOCTYPE svg PUBLIC "-//W3C//DTD SVG 1.1//EN" "http://www.w3.org/Graphics/SVG/1.1/DTD/svg11.dtd">
<svg version="1.1" id="Layer_1" xmlns="http://www.w3.org/2000/svg" xmlns:xlink="http://www.w3.org/1999/xlink" x="0px" y="0px"
	 width="256px" height="256px" viewBox="0 0 256 256" enable-background="new 0 0 256 256" xml:space="preserve">
<g id="Hair_Back">
	<path id="Short_3_" fill="#C97C5B" d="M49.229,211.082c4.25-0.786,12-7.412,13.125-12.803c3.792,5.953,2.125,14.15-0.125,20.103
		c34.125-16.845,19.779-83.255,17.75-94.481c-3.096-17.124-23.105-14.753-29.5-5.395C43.854,142.693,58.979,173.238,49.229,211.082z
		"/>
</g>
<g id="Feet_1_">
	<path fill="#4C423D" d="M160.979,229.514c0-9.576,4.068-16.514,11.303-16.514h6.549c7.235,0,14.148,6.938,14.148,16.512v12.139
		c0,9.578-6.913,12.35-14.148,12.35h-6.549c-7.236,0-11.303-2.773-11.303-12.35V229.514z"/>
	<path fill="#4C423D" d="M82.979,241.65v-12.139c0-9.574,4.994-16.513,12.229-16.513h6.549c7.236,0,13.224,6.938,13.224,16.513
		v12.139c0,9.578-5.987,12.35-13.224,12.35h-6.549C87.973,254,82.979,251.227,82.979,241.65L82.979,241.65z"/>
</g>
<g id="Arm_Back_1_">
	<g id="Normal_Sleeve_1_">
		<path fill="#CCB69D" d="M206.393,223.771c5.854,3.375,7.022,10.285,1.702,14.655c-6.665,5.472-16.698,2.156-17.615-7.177
			C189.928,225.627,199.456,220.271,206.393,223.771z"/>
		<path fill="#CCB69D" d="M170.024,197.104c1.049,6.223,11.65,26.228,20.455,34.146c3.417,0.417,13.167-5.083,15.914-7.479
			c-3.602-4.959-13.866-28.896-18.857-31.156C179.811,189.111,169.068,191.436,170.024,197.104z"/>
	</g>
</g>
<g id="Torso">
	<g id="Wrapped">
		<path fill="#739999" d="M80.507,194.377c0.261-5.294,112.431-6.158,112.701,0c0.681,15.477,1.578,44.424-0.506,45.623
			c-2.914,1.677-108.555,1.764-111.721-0.059C78.639,238.596,79.763,209.443,80.507,194.377z"/>
		<path fill="#394C4C" d="M193.792,234.768c-8.938,1.238-113.656,1.471-113.978-0.061c-0.319-1.534-0.657-5.557-0.256-7.198
			c19.674,1.89,98.063,1.423,114.444,0.328C194.394,229.438,194.038,233.188,193.792,234.768z"/>
		<path fill="#D1D3D4" stroke="#394C4C" stroke-width="4" stroke-linejoin="round" stroke-miterlimit="10" d="M112.889,190.348
			c16.603,14.982,36.579,28.524,38.903,28.524c2.25,0,23.574-13.699,29.875-27.159C176.313,191.064,128.979,190.469,112.889,190.348
			z"/>
		<path fill="none" stroke="#394C4C" stroke-width="4" stroke-linecap="round" stroke-miterlimit="10" d="M101.048,231.708
			c21.195-0.38,42.765-7.651,53.932-14.243"/>
	</g>
</g>
<g id="Arm_Front_1_">
	<g id="Normal_Sleeve">
		<path fill="#CCB69D" d="M100.542,225.125c5.854,3.375,6.875,9.932,1.554,14.302c-6.666,5.472-14.675,4.728-17.104-5.093
			C83.634,228.85,93.604,221.625,100.542,225.125z"/>
		<path fill="#CCB69D" d="M92.665,195.93c-3.117-7.404-17.353-7.199-20.947-1.666c-2.619,4.031-0.155,21.322,1.595,24.403
			c2.356,4.147,9.584,12.5,11.679,15.667c5.947-1.126,13.405-6.584,15.551-9.209c-3.264-3.525-7.316-10.754-8.396-12.958
			C91.21,210.255,93.984,199.061,92.665,195.93z"/>
	</g>
</g>
<g id="Mantle_1_">
	<g id="Mantle">
		<path id="Shouldered_1_" fill="#606A80" d="M71.507,191.359c-2.66,1.688-9.361,8.308-10.361,22.974
			c14.333,8.417,70.083-2.583,92-2.333c22.327,0.255,48.189,6.607,56.583,1.25c-2-12-10.146-17.579-15.729-21.277
			c-8.516-5.642-26.52-6.142-58.354-6.142S80.854,185.434,71.507,191.359z"/>
		<g id="Shouldered_3_">
			<path fill="#39404C" d="M209.361,213.473c-0.12,0.072-0.272,0.163-0.45,0.271c-0.19,0.089-0.41,0.193-0.66,0.311
				c-1.006,0.447-2.563,0.95-4.606,1.241c-4.085,0.612-9.998,0.546-17.006,0.006c-7.015-0.51-15.157-1.437-23.882-1.995
				c-4.371-0.274-8.854-0.451-13.424-0.283c-4.558,0.17-9.215,0.593-13.861,1.037c-4.652,0.435-9.303,0.922-13.887,1.397
				c-4.58,0.487-9.099,0.905-13.474,1.3c-8.751,0.773-16.952,1.274-23.998,1.291c-3.521,0.026-6.755-0.115-9.608-0.361
				c-2.855-0.239-5.334-0.604-7.34-1.082c-1.009-0.198-1.883-0.498-2.646-0.729c-0.756-0.259-1.376-0.546-1.889-0.743
				c-0.967-0.521-1.483-0.799-1.483-0.799s0.531,0.243,1.526,0.699c0.522,0.162,1.152,0.406,1.916,0.613
				c0.772,0.177,1.645,0.427,2.654,0.578c2.002,0.375,4.471,0.618,7.309,0.719c2.838,0.104,6.044,0.088,9.539-0.041
				c6.994-0.274,15.137-0.986,23.853-1.897c4.358-0.476,8.862-0.967,13.438-1.467c4.578-0.497,9.232-1.013,13.898-1.466
				c4.672-0.426,9.344-0.827,13.994-0.979c1.174-0.039,2.329-0.058,3.465-0.046c1.172,0.017,2.301,0.045,3.439,0.097
				c2.27,0.09,4.507,0.234,6.701,0.41c4.393,0.334,8.615,0.821,12.613,1.286c3.991,0.47,7.766,0.913,11.25,1.322
				c3.482,0.366,6.676,0.687,9.514,0.826c2.836,0.141,5.315,0.134,7.34-0.078c2.023-0.203,3.591-0.569,4.611-0.956
				c0.254-0.102,0.478-0.189,0.672-0.266c0.186-0.097,0.343-0.178,0.468-0.242c0.252-0.131,0.382-0.197,0.382-0.197
				S209.604,213.325,209.361,213.473z"/>
		</g>
	</g>
</g>
<g id="Shoulders">
	<g id="Warden_1_">
		<path fill="#736658" d="M55.23,196.75c-7.125,6.625-11.166,25.834-8.082,27.417c3.086,1.584,9.582-14.416,18.749-19.416
			c-0.376,1.376-1.416,7.124-1.645,13.749c-0.229,6.625,4.437,17.813,9.125,15.188c4.549-2.547-3.438-5.188-0.521-17.521
			c1.219-5.147,4.77-11.354,11.583-11.334c4.349,0.013,7.12,2.019,9.077,4.37c3.471,4.17,10.419,0.746,11.331-3.215
			c2.172-9.434,1.233-21.012-2.993-21.363C76.261,182.492,62.355,190.125,55.23,196.75z"/>
		<g>
			<path fill="#4C423D" d="M93.427,209.152c-0.229-0.26-0.588-0.617-1.064-1.039c-0.224-0.227-0.506-0.438-0.814-0.666
				c-0.152-0.115-0.312-0.235-0.475-0.36c-0.179-0.104-0.363-0.214-0.552-0.327c-0.19-0.109-0.381-0.234-0.587-0.342
				c-0.214-0.094-0.434-0.189-0.658-0.289c-0.439-0.224-0.938-0.357-1.451-0.518c-0.505-0.184-1.076-0.207-1.639-0.326
				c-0.564-0.063-1.195-0.063-1.768-0.088c-1.297,0.048-2.486,0.301-3.717,0.811c-2.445,1.021-4.438,3.252-5.709,5.797
				c-1.334,2.521-2.039,5.397-2.291,8.069c-0.109,1.343-0.121,2.649,0.017,3.878c0.143,1.227,0.405,2.373,0.751,3.402
				c0.342,1.031,0.734,1.955,1.047,2.806c0.313,0.831,0.546,1.669,0.318,2.336c-0.228,0.661-0.722,0.945-0.994,1.134
				c-0.299,0.176-0.463,0.258-0.463,0.258s0.158-0.1,0.432-0.304c0.257-0.209,0.684-0.55,0.839-1.143
				c0.155-0.595-0.103-1.343-0.478-2.142c-0.371-0.805-0.84-1.709-1.231-2.758c-0.81-2.076-1.336-4.728-1.103-7.537
				c0.104-1.408,0.346-2.834,0.703-4.263c0.365-1.431,0.879-2.853,1.565-4.196c0.703-1.336,1.575-2.595,2.631-3.662
				c1.052-1.068,2.296-1.933,3.63-2.475c1.309-0.555,2.787-0.756,4.014-0.736c0.686,0.053,1.287,0.086,1.896,0.178
				c0.594,0.152,1.186,0.207,1.71,0.426c0.531,0.193,1.052,0.35,1.493,0.619c0.227,0.121,0.445,0.24,0.661,0.354
				c0.205,0.129,0.394,0.271,0.581,0.4c0.185,0.131,0.365,0.257,0.539,0.379c0.158,0.14,0.312,0.275,0.459,0.406
				c0.296,0.257,0.564,0.494,0.777,0.74c0.457,0.465,0.766,0.864,0.969,1.143c0.209,0.273,0.322,0.42,0.322,0.42
				S93.661,209.402,93.427,209.152z"/>
		</g>
		<g>
			<path fill="#4C423D" d="M67.852,203.342c-0.741,0.508-1.767,1.274-2.955,2.237c-1.194,0.958-2.481,2.19-3.802,3.565
				c-1.309,1.387-2.627,2.938-3.889,4.545c-1.263,1.605-2.49,3.244-3.633,4.793c-1.166,1.521-2.195,3.021-3.273,4.166
				c-0.543,0.565-1.086,1.051-1.646,1.387c-0.537,0.34-1.214,0.492-1.646,0.193c-0.406-0.283-0.516-0.655-0.607-0.873
				c-0.08-0.229-0.107-0.354-0.107-0.354s0.043,0.122,0.149,0.337c0.108,0.203,0.281,0.546,0.651,0.745
				c0.371,0.208,0.908,0.046,1.387-0.315c0.488-0.353,0.96-0.867,1.439-1.453c0.979-1.162,1.912-2.69,2.972-4.313
				c1.073-1.605,2.265-3.292,3.537-4.923c0.628-0.822,1.298-1.612,1.969-2.382c0.668-0.773,1.362-1.502,2.06-2.184
				c0.692-0.686,1.394-1.315,2.09-1.875c0.691-0.564,1.359-1.082,2.002-1.521c0.625-0.461,1.238-0.827,1.777-1.154
				c0.551-0.308,1.029-0.574,1.426-0.796c0.809-0.397,1.271-0.625,1.271-0.625S68.596,202.832,67.852,203.342z"/>
		</g>
		<path fill="#736658" d="M223.068,200.615c6.173,4.83,9.675,18.834,7.002,19.988c-2.674,1.154-8.302-10.51-16.243-14.155
			c0.325,1.002,1.226,5.192,1.424,10.022c0.199,4.83-3.845,12.985-7.905,11.072c-3.942-1.857,2.978-3.782,0.45-12.773
			c-1.055-3.752-4.133-8.277-10.035-8.263c-3.768,0.011-6.168,1.474-7.864,3.187c-3.007,3.041-9.026,0.545-9.817-2.344
			c-1.882-6.877-1.068-15.317,2.594-15.574C204.847,190.221,216.896,195.785,223.068,200.615z"/>
		<g>
			<path fill="#4C423D" d="M189.94,209.628c0.176-0.206,0.438-0.504,0.825-0.84c0.182-0.183,0.403-0.356,0.651-0.54
				c0.242-0.191,0.511-0.391,0.824-0.566c0.303-0.192,0.631-0.39,1.004-0.545c0.362-0.186,0.76-0.336,1.188-0.453
				c0.421-0.151,0.872-0.248,1.345-0.33c0.469-0.112,0.963-0.14,1.471-0.181c0.51-0.063,1.051-0.026,1.557-0.024
				c0.54,0.055,1.115,0.111,1.656,0.262c1.098,0.264,2.203,0.723,3.183,1.408c0.983,0.678,1.849,1.546,2.56,2.514
				c0.705,0.975,1.258,2.046,1.67,3.148c0.418,1.108,0.652,2.22,0.803,3.336c0.309,2.219-0.119,4.361-0.846,5.969
				c-0.353,0.813-0.774,1.5-1.119,2.104c-0.336,0.598-0.598,1.168-0.445,1.612c0.15,0.442,0.521,0.675,0.727,0.829
				c0.231,0.141,0.354,0.216,0.354,0.216s-0.132-0.06-0.382-0.169c-0.221-0.136-0.646-0.293-0.881-0.809
				c-0.236-0.536,0.017-1.213,0.295-1.846c0.287-0.65,0.629-1.358,0.93-2.149c0.292-0.793,0.523-1.679,0.607-2.634
				c0.097-0.953,0.045-1.967-0.113-3.002c-0.336-2.066-1.088-4.236-2.408-6.017c-1.277-1.808-3.156-3.136-5.152-3.662
				c-0.5-0.157-0.986-0.204-1.477-0.295c-0.534-0.034-1.01-0.099-1.49-0.065c-0.482,0.012-0.955,0.008-1.4,0.088
				c-0.453,0.051-0.888,0.115-1.291,0.236c-0.205,0.051-0.405,0.102-0.602,0.15c-0.189,0.07-0.375,0.138-0.555,0.204
				c-0.37,0.114-0.7,0.272-1.01,0.427c-0.317,0.141-0.594,0.309-0.847,0.471c-0.258,0.154-0.491,0.305-0.684,0.463
				c-0.404,0.291-0.714,0.543-0.912,0.729c-0.205,0.177-0.313,0.271-0.313,0.271S189.757,209.829,189.94,209.628z"/>
		</g>
		<g>
			<path fill="#4C423D" d="M212.179,205.248c0.658,0.293,1.628,0.68,2.697,1.314c0.543,0.305,1.115,0.664,1.715,1.056
				c0.599,0.393,1.207,0.841,1.813,1.333c1.221,0.975,2.418,2.135,3.549,3.345c1.131,1.212,2.188,2.481,3.144,3.694
				c0.942,1.232,1.774,2.392,2.629,3.244c0.417,0.437,0.825,0.811,1.233,1.06c0.403,0.254,0.822,0.36,1.131,0.239
				c0.313-0.115,0.484-0.364,0.584-0.52c0.1-0.162,0.14-0.26,0.14-0.26s-0.024,0.1-0.101,0.28c-0.078,0.17-0.2,0.463-0.555,0.653
				c-0.361,0.193-0.883,0.113-1.348-0.113c-0.477-0.223-0.955-0.563-1.434-0.971c-0.953-0.832-1.881-1.957-2.92-3.078
				c-1.02-1.15-2.11-2.367-3.227-3.555c-0.566-0.585-1.121-1.178-1.693-1.734c-0.576-0.557-1.146-1.094-1.713-1.602
				c-1.145-0.996-2.246-1.896-3.257-2.584c-0.497-0.355-0.976-0.646-1.383-0.938c-0.423-0.266-0.792-0.497-1.095-0.688
				c-0.621-0.363-0.969-0.588-0.969-0.588S211.509,204.977,212.179,205.248z"/>
		</g>
	</g>
</g>
<g id="Heads">
	<path id="Female_4_" fill="#CCB69D" d="M51.944,150.729c2.202,8.022,4.827,17.031,7.648,21.854
		c16.137,27.585,89.115,34.156,98.846,34.156c10.5,0,50.779-8.087,62.305-30.255c2.584-4.969,5.902-26.484,5.319-43.437
		c-0.825-24.013-9.856-62.506-88.083-62.506C53.944,70.542,43.384,119.542,51.944,150.729z"/>
</g>
<g id="Hairs_1_">
	<path id="Faun_Strands_1_" fill="#C97C5B" d="M48.341,148.35c4.222-1.35,5.615-3.024,9.556-0.433
		c6.157,4.051,10.078,12.794,11.583,17.917c3.936,13.395-1.667,40.333,20.5,48.5c-13.167-15-4.911-32.757-9.5-52.334
		c-1.618-6.902-2.083-13.504-1.48-19.684c9.98-4.316,32.98-15.483,37.992-20.684c-1.425,6.415-3.566,12.941-6.511,16.034
		c9.666-1.833,25.5-9.167,27.833-22c8.5,1.5,20.666,19.499,43.833,21.167c-9.167-5.668-12.667-12.501-13.834-20.334
		c14.167,7.333,27.5,13.834,56.563,17.824c-4.563,35.343,6.771,48.176-5.896,72.176c24.5-17.666,8.859-36.773,18.333-71
		c4.743-17.131-2.038-34.47-12.166-44.654c-18.374-23.54-66.167-31.846-83.25-27.679c-1-1.5-1.5-5.917,0.083-8.167
		C106.229,59.75,38.007,90.766,48.341,148.35z"/>
</g>
<g id="Horns">
	<g id="Medium">
		<path fill="#726658" d="M77.384,113.25c7.432,14.993,42.844,14.404,44.084-20.673C116.024,80.324,95.2,69.36,71.641,59.735
			C71.925,72.771,72.874,103.2,77.384,113.25z"/>
		<g>
			<path fill="#594A42" d="M121.544,93.339c0.043,0.497,0.146,1.224,0.203,2.154c-0.002,0.472-0.002,0.994-0.002,1.563
				c0.004,0.573-0.005,1.197-0.093,1.848c-0.078,0.655-0.126,1.361-0.241,2.096c-0.154,0.73-0.316,1.498-0.486,2.299
				c-0.244,0.786-0.498,1.605-0.762,2.453c-0.348,0.817-0.687,1.678-1.111,2.527c-0.467,0.824-0.868,1.726-1.45,2.541
				c-0.279,0.417-0.56,0.838-0.843,1.264c-0.322,0.398-0.646,0.801-0.973,1.206c-0.627,0.836-1.414,1.551-2.144,2.342
				c-0.806,0.704-1.578,1.483-2.487,2.098c-1.734,1.343-3.684,2.445-5.701,3.381c-2.027,0.926-4.182,1.545-6.326,1.988
				c-2.145,0.473-4.33,0.538-6.418,0.45c-2.095-0.068-4.107-0.513-5.926-1.142c-1.841-0.586-3.443-1.535-4.783-2.539
				c-0.324-0.265-0.643-0.526-0.953-0.78c-0.31-0.254-0.563-0.56-0.828-0.833c-0.545-0.534-0.957-1.131-1.346-1.681
				c-0.42-0.527-0.677-1.112-0.951-1.617c-0.291-0.499-0.448-1.01-0.614-1.454c-0.37-0.876-0.466-1.622-0.577-2.109
				c-0.102-0.488-0.154-0.749-0.154-0.749s0.108,0.244,0.312,0.701c0.202,0.455,0.472,1.128,0.962,1.904
				c0.23,0.393,0.46,0.84,0.816,1.258c0.35,0.419,0.641,0.929,1.106,1.352c0.429,0.449,0.874,0.931,1.438,1.338
				c0.277,0.206,0.523,0.458,0.83,0.652c0.305,0.195,0.614,0.393,0.932,0.596c1.301,0.747,2.789,1.418,4.463,1.819
				c1.662,0.423,3.473,0.655,5.354,0.644c1.879,0.005,3.822-0.216,5.756-0.646c1.928-0.432,3.867-1.024,5.688-1.889
				c1.835-0.817,3.619-1.782,5.205-2.972c0.41-0.279,0.805-0.575,1.177-0.896c0.382-0.308,0.763-0.615,1.142-0.921
				c0.688-0.682,1.441-1.292,2.043-2.023c0.316-0.353,0.628-0.703,0.938-1.05c0.283-0.369,0.565-0.734,0.843-1.095
				c0.598-0.698,1.021-1.489,1.518-2.21c0.459-0.743,0.814-1.518,1.229-2.236c0.334-0.759,0.657-1.491,0.969-2.195
				c0.248-0.732,0.486-1.435,0.713-2.102c0.212-0.676,0.354-1.334,0.52-1.948c0.182-0.614,0.258-1.198,0.358-1.739
				c0.098-0.544,0.188-1.045,0.27-1.497c0.199-1.853,0.312-2.912,0.312-2.912S121.497,92.843,121.544,93.339z"/>
		</g>
		<path fill="#726658" d="M236.818,58.148c-20.717,11.895-48.956,29.589-47.801,37.527c1.308,8.982,13.858,27.068,34.334,26.107
			C232.585,116.7,241.239,88.726,236.818,58.148z"/>
		<g>
			<path fill="#594A42" d="M228.898,116.774c-0.627,1.093-1.332,2.14-2.103,3.163c-0.387,0.51-0.795,1.012-1.25,1.501
				c-0.232,0.245-0.477,0.483-0.758,0.715c-0.293,0.229-0.582,0.467-1.104,0.666c-0.045,0.017-0.098,0.031-0.148,0.037l-0.043,0.006
				c-1.002,0.129-2.006,0.292-3.023,0.318c-1.016,0.087-2.038,0.028-3.055-0.04l-1.524-0.164l-1.511-0.271
				c-0.996-0.223-1.998-0.452-2.959-0.798c-0.486-0.158-0.965-0.333-1.434-0.537c-0.47-0.197-0.949-0.376-1.402-0.609
				c-0.926-0.424-1.815-0.916-2.698-1.418c-0.866-0.528-1.722-1.072-2.527-1.683c-0.81-0.605-1.603-1.229-2.354-1.896
				c-0.766-0.652-1.489-1.348-2.197-2.056c-0.717-0.701-1.37-1.46-2.021-2.216c-0.645-0.762-1.261-1.545-1.861-2.339
				c-0.592-0.8-1.168-1.61-1.698-2.45c-1.062-1.68-2.049-3.403-2.874-5.21c-0.418-0.9-0.792-1.823-1.135-2.759
				c-0.348-0.936-0.62-1.903-0.791-2.931l-0.014-0.073c-0.01-0.064-0.006-0.131,0.016-0.196c0.205-0.633,0.435-1.209,0.688-1.793
				c0.258-0.578,0.547-1.14,0.854-1.69c0.604-1.104,1.353-2.129,2.194-3.04c-0.656,1.056-1.16,2.18-1.584,3.322
				c-0.211,0.572-0.395,1.153-0.558,1.737c-0.166,0.578-0.315,1.181-0.418,1.745l0.003-0.269c0.271,0.859,0.67,1.718,1.085,2.563
				c0.423,0.842,0.875,1.674,1.371,2.484c0.491,0.811,0.997,1.613,1.521,2.402c0.527,0.788,1.082,1.557,1.648,2.313
				c0.581,0.748,1.156,1.497,1.755,2.226c0.604,0.724,1.224,1.434,1.867,2.121c0.642,0.687,1.31,1.347,1.979,2.001
				c0.672,0.651,1.356,1.289,2.078,1.88c0.707,0.608,1.448,1.17,2.199,1.714c0.756,0.539,1.528,1.046,2.307,1.545
				c0.795,0.468,1.595,0.928,2.424,1.324c0.406,0.22,0.835,0.384,1.255,0.57c0.418,0.191,0.845,0.356,1.278,0.502
				c0.855,0.332,1.733,0.593,2.617,0.834l1.338,0.31l1.358,0.214c0.453,0.082,0.913,0.087,1.37,0.135
				c0.457,0.06,0.916,0.076,1.377,0.081c0.922,0.055,1.845-0.023,2.773-0.063l-0.191,0.043c0.063-0.006,0.294-0.121,0.493-0.261
				c0.209-0.145,0.424-0.322,0.643-0.5c0.435-0.368,0.86-0.782,1.274-1.212c0.83-0.862,1.602-1.801,2.371-2.748
				c1.515-1.916,2.92-3.937,4.175-6.083C231.239,112.322,230.161,114.602,228.898,116.774z"/>
		</g>
	</g>
</g>
<g id="Ears">
	<g id="Faun_1_">
		<path fill="#CCB69D" d="M57.13,147.969c1.922,2.502,3.729,5.375,4.64,7.885c2.428,6.688,4.496,16.875,5.784,22.857
			c-21.545,11.945-30.469,18.143-49.684,18.42c-5.564-8.445,22.381-28.841,30.471-48.781
			C48.458,147.896,55.417,145.625,57.13,147.969z"/>
		<path fill="#998976" d="M66.136,181.251c-0.084-1.701,0.078-10.041-0.563-12.271c-4.417,9.996-34.764,20.574-47.702,28.15
			C23.589,205.568,62.734,187.628,66.136,181.251z"/>
	</g>
</g>
<g id="Faces">
	<g id="Mouths_1_">
		<g id="Neutral_2_">
			<path fill="#414042" d="M169.82,192.098c0,0-1.749,0.573-4.373,0.978c-0.655,0.106-1.366,0.22-2.118,0.293
				c-0.75,0.085-1.543,0.187-2.363,0.228c-0.82,0.045-1.668,0.145-2.529,0.146c-0.861,0.021-1.736,0.038-2.611,0.058
				c-0.875-0.02-1.75-0.039-2.611-0.059c-0.861-0.008-1.709-0.102-2.529-0.147c-0.821-0.041-1.614-0.146-2.366-0.229
				c-0.752-0.072-1.463-0.188-2.12-0.294c-2.626-0.402-4.377-0.971-4.377-0.971l-0.001-0.199c0,0,7-0.051,14-0.101
				c7,0.05,14,0.101,14,0.101V192.098z"/>
		</g>
	</g>
	<g id="Eyes">
		<g id="Female">
			<path fill="#F1F2F2" stroke="#414042" stroke-miterlimit="10" d="M193.034,148.98c13.688-0.611,25.33,8.097,25.434,10.429
				c0.104,2.335-10.514,16.56-24.202,17.171s-25.265-10.639-25.369-12.958C168.792,161.305,179.345,149.592,193.034,148.98z"/>
			<path fill="#C97C5B" d="M188.54,150.116c4.627-1.304,11.373-0.697,15.734,0.843c0.083,0.052,0.161,0.096,0.229,0.126
				c3.338,2.513,5.567,6.438,5.769,10.937c0.155,3.475-0.925,6.715-2.853,9.301c-7.252,5.428-15.064,5.268-17.623,4.544
				c-4.799-2.188-8.229-6.923-8.48-12.552C181.066,157.729,184.016,152.738,188.54,150.116z"/>
			<path fill="#F1F2F2" stroke="#414042" stroke-miterlimit="10" d="M123.35,148.98c13.688,0.633,24.222,12.347,24.114,14.679
				c-0.108,2.335-11.699,13.552-25.387,12.92c-13.688-0.631-24.289-14.888-24.183-17.206S109.663,148.352,123.35,148.98z"/>
			<path fill="#C97C5B" d="M119.044,149.584c7.123-0.751,12.893,1.438,16.447,3.432c2.545,2.75,4.031,6.477,3.844,10.516
				c-0.182,3.968-1.944,7.49-4.652,9.986c-7.704,3.606-14.891,2.689-17.188,1.83c-4.471-2.64-7.369-7.604-7.113-13.152
				C110.646,156.504,114.157,151.729,119.044,149.584z"/>
		</g>
	</g>
	<g id="Eyebrows">
		<g id="Thin">
			<path fill="#414042" d="M119.098,142.352c-10.37,0.185-18.03,4.453-19.499,4.144s6.335-5.91,16.004-7.161
				c9.669-1.253,27.355,5.953,26.705,6.99C141.438,147.708,132.933,142.105,119.098,142.352z"/>
			<path fill="#414042" d="M197.581,142.352c10.371,0.185,18.03,4.453,19.5,4.144c1.469-0.31-6.336-5.91-16.004-7.161
				c-9.67-1.253-27.356,5.953-26.705,6.99C175.241,147.708,183.745,142.105,197.581,142.352z"/>
		</g>
	</g>
</g>
</svg>
