<?xml version="1.0" encoding="utf-8"?>
<!-- Generator: Adobe Illustrator 16.0.0, SVG Export Plug-In . SVG Version: 6.00 Build 0)  -->
<!DOCTYPE svg PUBLIC "-//W3C//DTD SVG 1.1//EN" "http://www.w3.org/Graphics/SVG/1.1/DTD/svg11.dtd">
<svg version="1.1" id="Layer_1" xmlns="http://www.w3.org/2000/svg" xmlns:xlink="http://www.w3.org/1999/xlink" x="0px" y="0px"
	 width="256px" height="256px" viewBox="0 0 256 256" enable-background="new 0 0 256 256" xml:space="preserve">
<g id="Backpack">
	<g id="Backpack_1_">
		<path fill="#83997D" d="M36.164,209.768c6.187,7.078,25.563,4.572,29.229,1.765s10.96-26.097-2.022-33.38
			c-8.344-4.68-18.356-4.301-25-0.827C35.621,178.764,29.975,202.689,36.164,209.768z"/>
		<g>
			<path fill="#5E6E5A" d="M50.877,190.271c-1.205-7.078-10.905-15.099-12.506-12.946c-10.502,14.128-6.973,26.978-2.951,31.223
				c6.463,6.829,12.465,1.946,13.775-5.192c3.434-18.692-5.52-22.584-9.236-19.588c-6.1,4.918-4.623,19.969-0.203,20.823
				c4.423,0.854,5.912-9.108,4.195-12.2c-2.234-4.025-4.431,1.025-3.932,2.938"/>
			<path fill="#414042" d="M39.979,193.693c0.091-0.531,0.253-1.188,0.646-1.895c0.201-0.345,0.461-0.723,0.903-0.99
				c0.437-0.305,1.158-0.246,1.614,0.104c0.471,0.331,0.818,0.787,1.121,1.277c0.087,0.158,0.139,0.244,0.208,0.39
				c0.061,0.144,0.137,0.299,0.182,0.442c0.104,0.289,0.19,0.588,0.257,0.896c0.273,1.232,0.318,2.58,0.213,4.009
				c-0.123,1.427-0.389,2.948-1.063,4.492c-0.345,0.765-0.806,1.549-1.563,2.208c-0.385,0.32-0.853,0.602-1.392,0.753
				c-0.547,0.151-1.106,0.142-1.666,0.034c-1.208-0.296-1.985-1.166-2.535-1.987c-0.556-0.848-0.938-1.758-1.243-2.694
				c-0.588-1.877-0.855-3.861-0.895-5.91c-0.027-2.047,0.18-4.166,0.795-6.291c0.646-2.108,1.652-4.27,3.729-5.922
				c1.074-0.849,2.59-1.229,3.957-1.084c1.387,0.131,2.676,0.735,3.695,1.563c2.081,1.679,3.148,4.077,3.77,6.396
				c0.605,2.352,0.774,4.744,0.719,7.101c-0.059,2.358-0.316,4.694-0.754,6.983c-0.463,2.427-1.398,4.844-3.131,6.826
				c-0.863,0.984-1.959,1.844-3.265,2.369c-1.304,0.516-2.798,0.641-4.136,0.336c-1.352-0.277-2.52-0.922-3.53-1.646
				c-1.013-0.74-1.873-1.57-2.64-2.485c-1.588-2.019-2.424-4.163-3.008-6.362c-1.104-4.4-0.797-8.821,0.199-12.729
				c1.021-3.924,2.783-7.336,4.694-10.227c0.493-0.715,0.978-1.412,1.492-2.062l0.376-0.489l0.094-0.121l0.078-0.097l0.051-0.056
				c0.036-0.039,0.15-0.143,0.225-0.196c0.076-0.045,0.15-0.098,0.229-0.129c0.643-0.265,1.152-0.13,1.584-0.024
				c1.678,0.563,2.829,1.543,3.918,2.449c2.118,1.879,3.624,3.829,4.696,5.526c1.063,1.709,1.646,3.19,1.938,4.219
				c0.291,1.032,0.338,1.601,0.338,1.601s-0.092-0.565-0.463-1.56c-0.367-0.993-1.062-2.394-2.223-3.983
				c-1.152-1.586-2.76-3.391-4.9-5.058c-1.056-0.805-2.301-1.678-3.609-2.026c-0.311-0.076-0.633-0.066-0.727,0.004
				c-0.017,0.004-0.019,0.018-0.031,0.021c0,0.013,0.031-0.032,0,0.002l-0.047,0.06c-0.035,0.043,0.021-0.028,0.008-0.008
				l-0.021,0.029l-0.082,0.124l-0.33,0.5c-0.455,0.661-0.867,1.371-1.303,2.084c-1.693,2.877-3.146,6.218-3.932,9.901
				c-0.795,3.668-0.85,7.72,0.232,11.576c0.529,1.896,1.413,3.832,2.581,5.237c1.321,1.495,2.994,2.769,4.696,3.104
				c1.688,0.378,3.369-0.354,4.611-1.817c1.25-1.444,2.035-3.41,2.396-5.431c0.38-2.176,0.67-4.362,0.73-6.526
				c0.07-2.161-0.077-4.306-0.573-6.294c-0.495-1.971-1.399-3.807-2.738-4.938c-1.315-1.141-3.11-1.408-4.315-0.498
				c-0.616,0.453-1.264,1.191-1.729,1.959c-0.486,0.781-0.859,1.649-1.16,2.543c-0.6,1.795-0.871,3.699-0.919,5.552
				c-0.04,1.853,0.142,3.675,0.584,5.325c0.218,0.824,0.505,1.607,0.888,2.264c0.375,0.66,0.879,1.162,1.351,1.296
				c0.569,0.157,1.12,0.043,1.624-0.341c0.505-0.382,0.921-0.975,1.251-1.6c0.667-1.264,1.028-2.666,1.231-3.979
				c0.359-2.616,0.238-5.165-1.179-6.392c-0.657-0.617-1.454-0.008-1.85,0.593c-0.425,0.606-0.652,1.228-0.791,1.731
				c-0.278,1.024-0.122,1.602-0.122,1.602S39.803,194.77,39.979,193.693z"/>
		</g>
		<path fill="#736658" d="M65.394,211.532c-0.615,0.991,11.879,0.521,13.671-0.282c4.343-1.945,11.52-28.093-3.125-33.75
			c-1.57-0.607-13.02,0.292-12.568,0.652C73.744,186.449,70.043,204.029,65.394,211.532z"/>
		<path fill="#4C423D" d="M42.147,213.229c18.917,0.146,30.792-4.104,44.917-1.979c0.258,13.576-0.209,29.577-1,30.628
			c-1.105,1.47-41.5,5.247-45.621-0.052S41.865,226.445,42.147,213.229z"/>
		<path fill="#736658" d="M42.565,240.002c2.271,2.6,9.424,2.01,10.771,0.979c1.347-1.03,1.791-8.729,0.666-11.354
			c-3.063-1.719-8.125-1.688-10.938-0.688C42.721,229.938,40.293,237.402,42.565,240.002z"/>
		<path fill="#736658" d="M58.471,244.532c1.511,0.302,4.511,0.657,6.719-0.177c1.863-3.323,2.671-23.11-0.078-32.715
			c-2.939-0.353-5.673,0.11-7.297,0.797C60.814,219.375,60.189,237.813,58.471,244.532z"/>
	</g>
</g>
<g id="Feet_1_">
	<path fill="#4C423D" d="M146.314,229.514c0-9.576,4.068-16.514,11.303-16.514h6.549c7.235,0,14.148,6.938,14.148,16.512v12.139
		c0,9.578-6.913,12.35-14.148,12.35h-6.549c-7.236,0-11.303-2.773-11.303-12.35V229.514z"/>
	<path fill="#4C423D" d="M68.314,241.65v-12.139c0-9.574,4.994-16.513,12.229-16.513h6.549c7.236,0,13.224,6.938,13.224,16.513
		v12.139c0,9.578-5.987,12.35-13.224,12.35h-6.549C73.308,254,68.314,251.227,68.314,241.65L68.314,241.65z"/>
</g>
<g id="Arm_Back_1_">
	<g id="Short_Sleeve_1_">
		<path fill="#CCB69D" d="M191.728,223.771c5.854,3.375,7.022,10.285,1.702,14.655c-6.665,5.472-16.698,2.156-17.615-7.177
			C175.263,225.627,184.791,220.271,191.728,223.771z"/>
		<path fill="#CCB69D" d="M155.359,197.104c1.049,6.223,11.65,26.228,20.455,34.146c3.417,0.417,13.167-5.083,15.914-7.479
			c-3.602-4.959-13.866-28.896-18.857-31.156C165.146,189.111,154.403,191.436,155.359,197.104z"/>
		<path fill="#4C6666" d="M155.359,197.104c1.049,6.223,2.83,12.896,9.455,21.396c3.417,0.417,22-6.249,22.5-7.916
			s-9.452-15.708-14.443-17.969C165.146,189.111,154.403,191.436,155.359,197.104z"/>
	</g>
</g>
<g id="Torso">
	<g id="Backpack_Straps">
		<path fill="#739999" d="M65.842,194.377c0.261-5.294,112.431-6.158,112.701,0c0.681,15.477,1.578,44.424-0.506,45.623
			c-2.914,1.677-108.555,1.764-111.721-0.059C63.974,238.596,65.098,209.443,65.842,194.377z"/>
		<path fill="#394C4C" d="M179.127,240.333c-4.906,1.122-95.563,1.94-113.978-0.062c-0.743-0.082-0.657-5.556-0.256-7.198
			c19.674,1.89,98.063,1.424,114.444,0.329C179.729,235.004,179.836,240.172,179.127,240.333z"/>
		<path fill="#4C423D" d="M98.939,190.676c5.625,13.043-16.813,37.256-34,38.448c-0.941,0.065-0.994-6.743,0-6.988
			c14.5-3.577,28.828-20.057,24.875-31.284C91.83,190.539,98.701,190.123,98.939,190.676z"/>
		<path fill="#4C423D" d="M168.892,191.732c0.438,15.451,4.608,22.52,10.422,26.692c0.271-0.794,0-7.8-0.229-9.042
			c-1.27-3.131-3.312-11.89-2.957-16.445C174.606,192.157,169.83,191.434,168.892,191.732z"/>
		<path fill="#D1D3D4" stroke="#394C4C" stroke-width="4" stroke-linejoin="round" stroke-miterlimit="10" d="M98.224,190.348
			c16.603,14.982,36.579,33.543,38.903,33.543c2.25,0,23.574-18.718,29.875-32.178C161.647,191.064,114.314,190.469,98.224,190.348z
			"/>
	</g>
</g>
<g id="Arm_Front_1_">
	<g id="Short_Sleeve">
		<path fill="#CCB69D" d="M85.877,225.125c5.854,3.375,6.875,9.932,1.554,14.302c-6.666,5.472-14.675,4.728-17.104-5.093
			C68.969,228.85,78.939,221.625,85.877,225.125z"/>
		<path fill="#CCB69D" d="M78,195.93c-3.117-7.404-17.353-7.199-20.947-1.666c-2.619,4.031-0.155,21.322,1.595,24.403
			c2.356,4.147,9.584,12.5,11.679,15.667c5.604-0.428,14.553-7.175,15.551-9.209c-3.264-3.525-7.316-10.754-8.396-12.958
			C76.545,210.255,79.319,199.061,78,195.93z"/>
		<path fill="#4C6666" d="M78,195.93c-3.117-7.404-17.353-7.199-20.947-1.666c-2.619,4.031-4.322,19.822-2.572,22.903
			c2.355,4.147,26.947-3.979,25.834-6.167C77.98,206.417,79.319,199.061,78,195.93z"/>
	</g>
</g>
<g id="Heads">
	<path id="Male_6_" fill="#CCB69D" d="M42.967,164.313l0.072,0.09c11.539,29.402,48.424,38.682,64.766,41.594
		c10.338,1.842,47.23,2.959,58.311-0.581c13.154-4.202,36.619-16.435,40.784-30.181c2.71-8.944,3.947-21.709,4.998-41.854
		c1.252-23.994-9.856-62.506-88.083-62.506C26.457,70.875,26.689,136.757,42.967,164.313z"/>
</g>
<g id="Hairs_1_">
	<g id="Dramatic">
		<path fill="#804040" d="M43.314,159c5.125,2,23.75,1.5,25,0s-8.375-26.936-7.52-40.003c3.552-0.483,11.57,6.274,17.019,21.629
			c8.375-7.5,11.75-25,12.167-28.292c6.497,7.103,26.961,15.729,43.5,21.833c16.876,6.229,44.797,7.379,67.548,0.336
			c1.794-0.555,3.552-1.167,5.274-1.825c1.744,3.791,2.41,8.813,2.178,20.322c5.859-8.883,8.143-17.906,8.586-25.49
			c0.498-12.51,1.873-54.135-18.684-67.338C186.647,53.333,162.647,44,136.147,44c-30.958,0-71.458,4.625-83.833,32.167
			C23.939,85.5,20.939,132.084,43.314,159z"/>
		<g>
			<path fill="#804040" d="M141.564,62.5c34.25,7.75,65.583-29.75,39.75-54.5c77.833,21.833,67.75,88,46.75,110.75
				c-6.729,7.29-16.309,12.432-27.036,15.753"/>
			<path fill="#4C2626" d="M211.239,130.279c3.317-1.586,6.495-3.455,9.462-5.606c1.471-1.094,2.898-2.241,4.242-3.481
				c1.344-1.257,2.59-2.545,3.797-3.952c2.356-2.767,4.354-5.871,6.082-9.091c3.422-6.477,5.707-13.548,6.895-20.781
				c1.17-7.238,1.224-14.666,0.018-21.9c-0.605-3.615-1.535-7.174-2.756-10.628c-1.245-3.445-2.791-6.783-4.618-9.96
				c-3.688-6.338-8.506-11.998-14.067-16.785c-5.567-4.793-11.838-8.739-18.446-11.956c-3.306-1.611-6.692-3.056-10.14-4.344
				c-3.453-1.273-6.959-2.399-10.498-3.413l0.383-0.671c2.755,2.668,5.15,5.75,6.839,9.215c1.696,3.456,2.651,7.282,2.729,11.133
				c0.07,3.853-0.713,7.694-2.146,11.251c-1.43,3.565-3.516,6.842-6.004,9.746c-4.987,5.818-11.639,10.135-18.898,12.477
				c-3.629,1.176-7.412,1.876-11.218,2.03c-3.806,0.162-7.625-0.206-11.328-1.063c3.715,0.802,7.532,1.111,11.319,0.894
				c3.787-0.211,7.537-0.963,11.119-2.183c3.584-1.221,6.996-2.922,10.131-5.029c3.142-2.098,6.005-4.615,8.447-7.49
				c2.438-2.875,4.471-6.109,5.854-9.611c1.388-3.495,2.131-7.252,2.042-11.005c-0.094-3.752-1.043-7.466-2.712-10.823
				c-1.663-3.366-4.017-6.364-6.728-8.965c-0.104-0.098-0.151-0.251-0.109-0.397c0.06-0.211,0.281-0.334,0.492-0.274
				c3.56,1.014,7.088,2.142,10.565,3.417c3.472,1.292,6.886,2.742,10.22,4.361c6.668,3.233,13.006,7.206,18.646,12.047
				c5.635,4.835,10.528,10.564,14.28,16.99c1.859,3.221,3.433,6.606,4.703,10.102c1.244,3.505,2.192,7.115,2.813,10.782
				c1.236,7.337,1.193,14.869,0.02,22.207c-1.194,7.335-3.498,14.504-6.967,21.094c-1.754,3.286-3.785,6.42-6.221,9.278
				c-2.43,2.824-5.287,5.279-8.32,7.42c-3.058,2.121-6.31,3.941-9.685,5.471c-0.836,0.399-1.698,0.739-2.548,1.11
				c-0.869,0.316-1.729,0.664-2.607,0.953c-1.742,0.623-3.52,1.144-5.292,1.653C204.526,133.309,207.92,131.857,211.239,130.279z"/>
		</g>
	</g>
</g>
<g id="Ears">
	<path id="Human_1_" fill="#CCB69D" d="M43.231,138.841c-10.25-5.625-21.56-6.399-27.592,0.886
		c-11.072,13.375,9.112,43.824,21.929,44.937c12.24,1.063,16.609-8.787,14.621-14.038C48.189,165.75,44.586,147.145,43.231,138.841z
		"/>
</g>
<g id="Faces">
	<g id="Mouths_1_">
		<g id="Open_Happy">
			<path fill="#854848" d="M160.256,190.917c2.369,2.919-10.205,8.998-17.194,8.998s-17.89-5.153-17.728-9.084
				c3.389-1.669,12.191-2.914,18.452-2.914C150.885,187.917,157.278,189.59,160.256,190.917z"/>
			<path fill="#F1F2F2" d="M160.547,191.609c0.096-0.293,0.07-0.352,0-0.61c-3.043-1.843-14.186-3.146-17.486-3.079
				c-2.953,0.061-12.582,1.042-17.268,2.702c-0.459,0.209-0.461,0.636-0.461,0.93C137.522,189.531,148.481,189.503,160.547,191.609z
				"/>
			<path fill="#B05F5F" d="M143.062,199.917c7.747,0,15.671-5.207,15.43-5.444c-1.688-1.664-8.844-2.602-15.366-2.602
				c-6.39,0-13.174,0.494-15.82,2.27C126.861,194.438,135.314,199.917,143.062,199.917z"/>
			<path fill="none" stroke="#414042" stroke-miterlimit="10" d="M160.256,190.917c2.369,2.919-10.205,8.998-17.194,8.998
				s-17.89-5.153-17.728-9.084c3.389-1.669,12.191-2.914,18.452-2.914C150.885,187.917,157.278,189.59,160.256,190.917z"/>
		</g>
	</g>
	<g id="Eyes">
		<g id="Bored">
			<path fill="#F1F2F2" stroke="#414042" stroke-miterlimit="10" d="M108.045,157c13.703,0,24.812,4.182,24.812,6.518
				s-11.108,13.076-24.812,13.076c-13.701,0-24.811-10.755-24.811-13.076C83.234,161.195,94.344,157,108.045,157z"/>
			<path fill="#414042" d="M96.586,157.768c12.229-1.933,27.485,0.78,27.604,1.224c0.323,1.204,0.496,2.468,0.496,3.774
				c0,5.213-2.753,9.783-6.886,12.336c-3.774,1.039-9.424,2.193-12.68,1.244c-5.502-2.057-9.42-7.361-9.42-13.58
				C95.701,161.009,96.014,159.325,96.586,157.768z"/>
			<path fill="#F1F2F2" stroke="#414042" stroke-miterlimit="10" d="M178.986,157c13.703,0,24.811,4.182,24.811,6.518
				s-11.107,13.076-24.811,13.076c-13.701,0-24.811-10.755-24.811-13.076C154.176,161.195,165.285,157,178.986,157z"/>
			<path fill="#414042" d="M167.527,157.768c12.229-1.933,27.485,0.78,27.604,1.224c0.324,1.204,0.496,2.468,0.496,3.774
				c0,5.213-2.752,9.783-6.885,12.336c-3.775,1.039-9.424,2.193-12.68,1.244c-5.502-2.057-9.42-7.361-9.42-13.58
				C166.643,161.009,166.955,159.325,167.527,157.768z"/>
		</g>
	</g>
	<g id="Eyebrows">
		<g id="Neutral_1_">
			<path fill="#414042" d="M83.473,151.366c-1.124,0.8-1.362-5.515,1.091-8.188c2.452-2.675,32.983-5.402,41.387,2.701
				C126.644,146.551,103.459,137.134,83.473,151.366z"/>
			<path fill="#414042" d="M203.157,151.366c1.124,0.8,1.362-5.515-1.091-8.188c-2.452-2.675-31.982-5.402-40.387,2.701
				C160.986,146.551,183.172,137.134,203.157,151.366z"/>
		</g>
	</g>
</g>
</svg>
