<?xml version="1.0" encoding="utf-8"?>
<!-- Generator: Adobe Illustrator 16.0.0, SVG Export Plug-In . SVG Version: 6.00 Build 0)  -->
<!DOCTYPE svg PUBLIC "-//W3C//DTD SVG 1.1//EN" "http://www.w3.org/Graphics/SVG/1.1/DTD/svg11.dtd">
<svg version="1.1" id="Layer_1" xmlns="http://www.w3.org/2000/svg" xmlns:xlink="http://www.w3.org/1999/xlink" x="0px" y="0px"
	 width="256px" height="256px" viewBox="0 0 256 256" enable-background="new 0 0 256 256" xml:space="preserve">
<path fill="#A3BECC" stroke="#292929" stroke-width="4" stroke-linejoin="round" stroke-miterlimit="10" d="M157,147.145v75.914
	c0,0,78.83-23.971,81.879-27.23s0.248-73.439,0.248-73.439L157,147.145z"/>
<path fill="#A3BECC" stroke="#292929" stroke-width="4" stroke-linejoin="round" stroke-miterlimit="10" d="M157,223.059
	c0,0-137.799-15.754-140.359-18.153c-2.559-2.398-0.285-72.614-0.285-72.614L157,147.145V223.059z"/>
<path fill="#A3BECC" stroke="#292929" stroke-width="4" stroke-linejoin="round" stroke-miterlimit="10" d="M158.146,147.145
	l81.583-24.756c0,0-0.687-36.897-34.242-36.615C163.145,86.127,158.146,147.145,158.146,147.145z"/>
<path fill="#A3BECC" stroke="#292929" stroke-width="4" stroke-linejoin="round" stroke-miterlimit="10" d="M63.559,74.221
	c0,0,81.935,5.742,141.928,11.553c-43.734,5.26-47.341,61.371-47.341,61.371L16.938,132.291
	C16.938,132.291,20.513,77.281,63.559,74.221z"/>
<path fill="#BF987C" stroke="#292929" stroke-width="2" stroke-linejoin="round" stroke-miterlimit="10" d="M145,160.865l-1,47.258
	l-114.771-15.86l0.886-45.611l33.808,3.566c0,0-0.44,22.566,20.563,23.864c21.781,1.346,23.598-17.051,23.598-17.051L145,160.865z"
	/>
<polygon fill="#BF987C" stroke="#292929" stroke-width="2" stroke-linejoin="round" stroke-miterlimit="10" points="169,160.354 
	228,141.617 228,186.31 168,205.48 "/>
<path fill="#BF987C" stroke="#292929" stroke-width="2" stroke-linejoin="round" stroke-miterlimit="10" d="M171.612,131.775
	c0,0,6.638-29.775,33.874-33.538c20.442-2.824,19.71,9.445,20.338,16.431C219.813,116.789,171.612,131.775,171.612,131.775z"/>
<path fill="#BF987C" stroke="#292929" stroke-width="2" stroke-linejoin="round" stroke-miterlimit="10" d="M183.66,84.377
	c-11.623,2.678-31.857,14.446-37.893,51.031L33.655,122.348c0,0,3.038-45.96,57.896-45.96L183.66,84.377z"/>
<path fill="none" stroke="#292929" stroke-width="2" stroke-linejoin="round" stroke-miterlimit="10" d="M150.118,117.842
	c0,0-45.601-4.883-54.41-6.56c-8.81-1.676-56.992-5.499-56.992-5.499"/>
<path fill="none" stroke="#292929" stroke-width="2" stroke-linejoin="round" stroke-miterlimit="10" d="M161.561,98.815
	c0,0-23.746-2.173-26.492-2.422c-23.872-2.169-53.964-5.134-56.059-5.261c-14.784-0.896-26.757-2.341-26.757-2.341"/>
<path fill="#FFFFFF" stroke="#292929" stroke-width="2" stroke-linejoin="round" stroke-miterlimit="10" d="M177.579,117.975
	c0,0,5.822-3.223,18.584-5.601c6.88-1.282,29.056-7.781,29.056-7.781"/>
<path fill="none" stroke="#292929" stroke-width="2" stroke-linejoin="round" stroke-miterlimit="10" d="M168.654,182.183
	c20.867-6.895,16.575-4.818,32.382-8.115c7.762-1.618,28.139-9.153,28.139-9.153"/>
<path fill="#FFFFFF" stroke="#292929" stroke-width="2" stroke-linejoin="round" stroke-miterlimit="10" d="M28.697,173.47
	c79.715,8.929,74.313,8.934,79.837,8.981c15.023,0.129,36.584,3.916,36.584,3.916"/>
<path fill="#292929" d="M86.542,147.018c7.646,0.786,5.456,8.998,2.206,10.127c0.273,3.009,1.654,8.757,1.654,8.757l-10.686-1.233
	c0,0,1.108-3.646,2.053-8.209C78.862,154.989,78.895,146.232,86.542,147.018z"/>
</svg>
